<?xml version="1.0" encoding="UTF-8" standalone="no"?><svg xmlns="http://www.w3.org/2000/svg" xmlns:xlink="http://www.w3.org/1999/xlink" contentScriptType="application/ecmascript" contentStyleType="text/css" height="419px" preserveAspectRatio="none" style="width:658px;height:419px;" version="1.1" viewBox="0 0 658 419" width="658px" zoomAndPan="magnify"><defs><filter height="300%" id="fj9qksv4jrg4e" width="300%" x="-1" y="-1"><feGaussianBlur result="blurOut" stdDeviation="2.0"/><feColorMatrix in="blurOut" result="blurOut2" type="matrix" values="0 0 0 0 0 0 0 0 0 0 0 0 0 0 0 0 0 0 .4 0"/><feOffset dx="4.0" dy="4.0" in="blurOut2" result="blurOut3"/><feBlend in="SourceGraphic" in2="blurOut3" mode="normal"/></filter></defs><g><rect fill="#FFFFFF" filter="url(#fj9qksv4jrg4e)" height="317.2266" style="stroke: #A80036; stroke-width: 1.0;" width="10" x="31.5" y="50.2969"/><rect fill="#FFFFFF" filter="url(#fj9qksv4jrg4e)" height="244.9609" style="stroke: #A80036; stroke-width: 1.0;" width="10" x="224.5" y="71.4297"/><rect fill="#FFFFFF" filter="url(#fj9qksv4jrg4e)" height="266.9609" style="stroke: #A80036; stroke-width: 1.0;" width="10" x="341.5" y="100.5625"/><rect fill="#FFFFFF" filter="url(#fj9qksv4jrg4e)" height="141.6953" style="stroke: #A80036; stroke-width: 1.0;" width="10" x="549.5" y="139.6953"/><line style="stroke: #A80036; stroke-width: 1.0; stroke-dasharray: 5.0,5.0;" x1="36" x2="36" y1="40.2969" y2="376.5234"/><line style="stroke: #A80036; stroke-width: 1.0; stroke-dasharray: 5.0,5.0;" x1="229" x2="229" y1="40.2969" y2="376.5234"/><line style="stroke: #A80036; stroke-width: 1.0; stroke-dasharray: 5.0,5.0;" x1="346" x2="346" y1="40.2969" y2="376.5234"/><line style="stroke: #A80036; stroke-width: 1.0; stroke-dasharray: 5.0,5.0;" x1="554.5" x2="554.5" y1="141.2109" y2="376.5234"/><rect fill="#FEFECE" filter="url(#fj9qksv4jrg4e)" height="30.2969" style="stroke: #A80036; stroke-width: 1.5;" width="59" x="5" y="5"/><text fill="#000000" font-family="sans-serif" font-size="14" lengthAdjust="spacingAndGlyphs" textLength="45" x="12" y="24.9951">: Front</text><rect fill="#FEFECE" filter="url(#fj9qksv4jrg4e)" height="30.2969" style="stroke: #A80036; stroke-width: 1.5;" width="59" x="5" y="375.5234"/><text fill="#000000" font-family="sans-serif" font-size="14" lengthAdjust="spacingAndGlyphs" textLength="45" x="12" y="395.5186">: Front</text><rect fill="#FEFECE" filter="url(#fj9qksv4jrg4e)" height="30.2969" style="stroke: #A80036; stroke-width: 1.5;" width="57" x="199" y="5"/><text fill="#000000" font-family="sans-serif" font-size="14" lengthAdjust="spacingAndGlyphs" textLength="43" x="206" y="24.9951">: Back</text><rect fill="#FEFECE" filter="url(#fj9qksv4jrg4e)" height="30.2969" style="stroke: #A80036; stroke-width: 1.5;" width="57" x="199" y="375.5234"/><text fill="#000000" font-family="sans-serif" font-size="14" lengthAdjust="spacingAndGlyphs" textLength="43" x="206" y="395.5186">: Back</text><rect fill="#FEFECE" filter="url(#fj9qksv4jrg4e)" height="30.2969" style="stroke: #A80036; stroke-width: 1.5;" width="133" x="278" y="5"/><text fill="#000000" font-family="sans-serif" font-size="14" lengthAdjust="spacingAndGlyphs" textLength="119" x="285" y="24.9951">: FridgeController</text><rect fill="#FEFECE" filter="url(#fj9qksv4jrg4e)" height="30.2969" style="stroke: #A80036; stroke-width: 1.5;" width="133" x="278" y="375.5234"/><text fill="#000000" font-family="sans-serif" font-size="14" lengthAdjust="spacingAndGlyphs" textLength="119" x="285" y="395.5186">: FridgeController</text><rect fill="#FEFECE" filter="url(#fj9qksv4jrg4e)" height="30.2969" style="stroke: #A80036; stroke-width: 1.5;" width="184" x="460.5" y="375.5234"/><text fill="#000000" font-family="sans-serif" font-size="14" lengthAdjust="spacingAndGlyphs" textLength="170" x="467.5" y="395.5186">FridgeController.f: Fridge</text><rect fill="#FFFFFF" filter="url(#fj9qksv4jrg4e)" height="317.2266" style="stroke: #A80036; stroke-width: 1.0;" width="10" x="31.5" y="50.2969"/><rect fill="#FFFFFF" filter="url(#fj9qksv4jrg4e)" height="244.9609" style="stroke: #A80036; stroke-width: 1.0;" width="10" x="224.5" y="71.4297"/><rect fill="#FFFFFF" filter="url(#fj9qksv4jrg4e)" height="266.9609" style="stroke: #A80036; stroke-width: 1.0;" width="10" x="341.5" y="100.5625"/><rect fill="#FFFFFF" filter="url(#fj9qksv4jrg4e)" height="141.6953" style="stroke: #A80036; stroke-width: 1.0;" width="10" x="549.5" y="139.6953"/><polygon fill="#A80036" points="212.5,67.4297,222.5,71.4297,212.5,75.4297,216.5,71.4297" style="stroke: #A80036; stroke-width: 1.0;"/><line style="stroke: #A80036; stroke-width: 1.0;" x1="41.5" x2="218.5" y1="71.4297" y2="71.4297"/><text fill="#000000" font-family="sans-serif" font-size="13" lengthAdjust="spacingAndGlyphs" textLength="133" x="48.5" y="66.3638">POST /fridge/addition</text><polygon fill="#A80036" points="329.5,96.5625,339.5,100.5625,329.5,104.5625,333.5,100.5625" style="stroke: #A80036; stroke-width: 1.0;"/><line style="stroke: #A80036; stroke-width: 1.0;" x1="234.5" x2="335.5" y1="100.5625" y2="100.5625"/><text fill="#000000" font-family="sans-serif" font-size="13" lengthAdjust="spacingAndGlyphs" textLength="88" x="241.5" y="95.4966">addToFridge()</text><polygon fill="#A80036" points="448.5,125.6953,458.5,129.6953,448.5,133.6953,452.5,129.6953" style="stroke: #A80036; stroke-width: 1.0;"/><line style="stroke: #A80036; stroke-width: 1.0;" x1="351.5" x2="454.5" y1="129.6953" y2="129.6953"/><text fill="#000000" font-family="sans-serif" font-size="13" lengthAdjust="spacingAndGlyphs" textLength="85" x="358.5" y="124.6294">getInstance()</text><rect fill="#FEFECE" filter="url(#fj9qksv4jrg4e)" height="30.2969" style="stroke: #A80036; stroke-width: 1.5;" width="184" x="460.5" y="108.5625"/><text fill="#000000" font-family="sans-serif" font-size="14" lengthAdjust="spacingAndGlyphs" textLength="170" x="467.5" y="128.5576">FridgeController.f: Fridge</text><line style="stroke: #A80036; stroke-width: 1.0; stroke-dasharray: 2.0,2.0;" x1="559.5" x2="601.5" y1="174.9922" y2="174.9922"/><line style="stroke: #A80036; stroke-width: 1.0; stroke-dasharray: 2.0,2.0;" x1="601.5" x2="601.5" y1="174.9922" y2="187.9922"/><line style="stroke: #A80036; stroke-width: 1.0; stroke-dasharray: 2.0,2.0;" x1="560.5" x2="601.5" y1="187.9922" y2="187.9922"/><polygon fill="#A80036" points="570.5,183.9922,560.5,187.9922,570.5,191.9922,566.5,187.9922" style="stroke: #A80036; stroke-width: 1.0;"/><text fill="#000000" font-family="sans-serif" font-size="13" lengthAdjust="spacingAndGlyphs" textLength="78" x="566.5" y="169.9263">readFridge()</text><polygon fill="#A80036" points="362.5,213.125,352.5,217.125,362.5,221.125,358.5,217.125" style="stroke: #A80036; stroke-width: 1.0;"/><line style="stroke: #A80036; stroke-width: 1.0; stroke-dasharray: 2.0,2.0;" x1="356.5" x2="548.5" y1="217.125" y2="217.125"/><text fill="#000000" font-family="sans-serif" font-size="13" lengthAdjust="spacingAndGlyphs" textLength="131" x="368.5" y="212.0591">stringToFridgeFood()</text><polygon fill="#A80036" points="537.5,242.2578,547.5,246.2578,537.5,250.2578,541.5,246.2578" style="stroke: #A80036; stroke-width: 1.0;"/><line style="stroke: #A80036; stroke-width: 1.0; stroke-dasharray: 2.0,2.0;" x1="351.5" x2="543.5" y1="246.2578" y2="246.2578"/><text fill="#000000" font-family="sans-serif" font-size="13" lengthAdjust="spacingAndGlyphs" textLength="88" x="358.5" y="241.1919">addToFridge()</text><line style="stroke: #A80036; stroke-width: 1.0; stroke-dasharray: 2.0,2.0;" x1="559.5" x2="601.5" y1="280.3906" y2="280.3906"/><line style="stroke: #A80036; stroke-width: 1.0; stroke-dasharray: 2.0,2.0;" x1="601.5" x2="601.5" y1="280.3906" y2="293.3906"/><line style="stroke: #A80036; stroke-width: 1.0; stroke-dasharray: 2.0,2.0;" x1="554.5" x2="601.5" y1="293.3906" y2="293.3906"/><polygon fill="#A80036" points="564.5,289.3906,554.5,293.3906,564.5,297.3906,560.5,293.3906" style="stroke: #A80036; stroke-width: 1.0;"/><text fill="#000000" font-family="sans-serif" font-size="13" lengthAdjust="spacingAndGlyphs" textLength="79" x="566.5" y="275.3247">writeFridge()</text><polygon fill="#A80036" points="245.5,298.3906,235.5,302.3906,245.5,306.3906,241.5,302.3906" style="stroke: #A80036; stroke-width: 1.0;"/><line style="stroke: #A80036; stroke-width: 1.0; stroke-dasharray: 2.0,2.0;" x1="239.5" x2="340.5" y1="302.3906" y2="302.3906"/><polygon fill="#A80036" points="52.5,312.3906,42.5,316.3906,52.5,320.3906,48.5,316.3906" style="stroke: #A80036; stroke-width: 1.0;"/><line style="stroke: #A80036; stroke-width: 1.0; stroke-dasharray: 2.0,2.0;" x1="46.5" x2="228.5" y1="316.3906" y2="316.3906"/><line style="stroke: #A80036; stroke-width: 1.0; stroke-dasharray: 2.0,2.0;" x1="41.5" x2="83.5" y1="345.5234" y2="345.5234"/><line style="stroke: #A80036; stroke-width: 1.0; stroke-dasharray: 2.0,2.0;" x1="83.5" x2="83.5" y1="345.5234" y2="358.5234"/><line style="stroke: #A80036; stroke-width: 1.0; stroke-dasharray: 2.0,2.0;" x1="42.5" x2="83.5" y1="358.5234" y2="358.5234"/><polygon fill="#A80036" points="52.5,354.5234,42.5,358.5234,52.5,362.5234,48.5,358.5234" style="stroke: #A80036; stroke-width: 1.0;"/><text fill="#000000" font-family="sans-serif" font-size="13" lengthAdjust="spacingAndGlyphs" textLength="169" x="48.5" y="340.4575">Traiter les données reçues</text><!--MD5=[c84962fd789a7e6e944bb7c8e5ee9f53]
@startuml addToFridge

participant ": Front" as ft
participant ": Back" as bk
participant ": FridgeController" as fc

activate ft
ft -> bk: POST /fridge/addition
activate bk
bk -> fc: addToFridge()
activate fc
create "FridgeController.f: Fridge" as f
fc -> f: getInstance()
activate f
f - -> f: readFridge()
f - -> fc: stringToFridgeFood()
fc - -> f: addToFridge()
f - -> f: writeFridge()
deactivate f
fc - -> bk
bk - -> ft
deactivate bk
ft <- - ft: Traiter les données reçues


@enduml

PlantUML version 1.2020.18(Wed Sep 30 21:40:44 CEST 2020)
(GPL source distribution)
Java Runtime: OpenJDK Runtime Environment
JVM: OpenJDK 64-Bit Server VM
Default Encoding: UTF-8
Language: fr
Country: FR
--></g></svg>