<?xml version="1.0" encoding="UTF-8" standalone="no"?><svg xmlns="http://www.w3.org/2000/svg" xmlns:xlink="http://www.w3.org/1999/xlink" contentScriptType="application/ecmascript" contentStyleType="text/css" height="348px" preserveAspectRatio="none" style="width:650px;height:348px;" version="1.1" viewBox="0 0 650 348" width="650px" zoomAndPan="magnify"><defs><filter height="300%" id="f433l4ss85ic6" width="300%" x="-1" y="-1"><feGaussianBlur result="blurOut" stdDeviation="2.0"/><feColorMatrix in="blurOut" result="blurOut2" type="matrix" values="0 0 0 0 0 0 0 0 0 0 0 0 0 0 0 0 0 0 .4 0"/><feOffset dx="4.0" dy="4.0" in="blurOut2" result="blurOut3"/><feBlend in="SourceGraphic" in2="blurOut3" mode="normal"/></filter></defs><g><rect fill="#FFFFFF" filter="url(#f433l4ss85ic6)" height="245.9609" style="stroke: #A80036; stroke-width: 1.0;" width="10" x="31.5" y="50.2969"/><rect fill="#FFFFFF" filter="url(#f433l4ss85ic6)" height="173.6953" style="stroke: #A80036; stroke-width: 1.0;" width="10" x="224.5" y="71.4297"/><rect fill="#FFFFFF" filter="url(#f433l4ss85ic6)" height="195.6953" style="stroke: #A80036; stroke-width: 1.0;" width="10" x="333.5" y="100.5625"/><rect fill="#FFFFFF" filter="url(#f433l4ss85ic6)" height="77.4297" style="stroke: #A80036; stroke-width: 1.0;" width="10" x="541.5" y="139.6953"/><line style="stroke: #A80036; stroke-width: 1.0; stroke-dasharray: 5.0,5.0;" x1="36" x2="36" y1="40.2969" y2="305.2578"/><line style="stroke: #A80036; stroke-width: 1.0; stroke-dasharray: 5.0,5.0;" x1="229" x2="229" y1="40.2969" y2="305.2578"/><line style="stroke: #A80036; stroke-width: 1.0; stroke-dasharray: 5.0,5.0;" x1="338" x2="338" y1="40.2969" y2="305.2578"/><line style="stroke: #A80036; stroke-width: 1.0; stroke-dasharray: 5.0,5.0;" x1="546.5" x2="546.5" y1="141.2109" y2="305.2578"/><rect fill="#FEFECE" filter="url(#f433l4ss85ic6)" height="30.2969" style="stroke: #A80036; stroke-width: 1.5;" width="59" x="5" y="5"/><text fill="#000000" font-family="sans-serif" font-size="14" lengthAdjust="spacingAndGlyphs" textLength="45" x="12" y="24.9951">: Front</text><rect fill="#FEFECE" filter="url(#f433l4ss85ic6)" height="30.2969" style="stroke: #A80036; stroke-width: 1.5;" width="59" x="5" y="304.2578"/><text fill="#000000" font-family="sans-serif" font-size="14" lengthAdjust="spacingAndGlyphs" textLength="45" x="12" y="324.2529">: Front</text><rect fill="#FEFECE" filter="url(#f433l4ss85ic6)" height="30.2969" style="stroke: #A80036; stroke-width: 1.5;" width="57" x="199" y="5"/><text fill="#000000" font-family="sans-serif" font-size="14" lengthAdjust="spacingAndGlyphs" textLength="43" x="206" y="24.9951">: Back</text><rect fill="#FEFECE" filter="url(#f433l4ss85ic6)" height="30.2969" style="stroke: #A80036; stroke-width: 1.5;" width="57" x="199" y="304.2578"/><text fill="#000000" font-family="sans-serif" font-size="14" lengthAdjust="spacingAndGlyphs" textLength="43" x="206" y="324.2529">: Back</text><rect fill="#FEFECE" filter="url(#f433l4ss85ic6)" height="30.2969" style="stroke: #A80036; stroke-width: 1.5;" width="133" x="270" y="5"/><text fill="#000000" font-family="sans-serif" font-size="14" lengthAdjust="spacingAndGlyphs" textLength="119" x="277" y="24.9951">: FridgeController</text><rect fill="#FEFECE" filter="url(#f433l4ss85ic6)" height="30.2969" style="stroke: #A80036; stroke-width: 1.5;" width="133" x="270" y="304.2578"/><text fill="#000000" font-family="sans-serif" font-size="14" lengthAdjust="spacingAndGlyphs" textLength="119" x="277" y="324.2529">: FridgeController</text><rect fill="#FEFECE" filter="url(#f433l4ss85ic6)" height="30.2969" style="stroke: #A80036; stroke-width: 1.5;" width="184" x="452.5" y="304.2578"/><text fill="#000000" font-family="sans-serif" font-size="14" lengthAdjust="spacingAndGlyphs" textLength="170" x="459.5" y="324.2529">FridgeController.f: Fridge</text><rect fill="#FFFFFF" filter="url(#f433l4ss85ic6)" height="245.9609" style="stroke: #A80036; stroke-width: 1.0;" width="10" x="31.5" y="50.2969"/><rect fill="#FFFFFF" filter="url(#f433l4ss85ic6)" height="173.6953" style="stroke: #A80036; stroke-width: 1.0;" width="10" x="224.5" y="71.4297"/><rect fill="#FFFFFF" filter="url(#f433l4ss85ic6)" height="195.6953" style="stroke: #A80036; stroke-width: 1.0;" width="10" x="333.5" y="100.5625"/><rect fill="#FFFFFF" filter="url(#f433l4ss85ic6)" height="77.4297" style="stroke: #A80036; stroke-width: 1.0;" width="10" x="541.5" y="139.6953"/><polygon fill="#A80036" points="212.5,67.4297,222.5,71.4297,212.5,75.4297,216.5,71.4297" style="stroke: #A80036; stroke-width: 1.0;"/><line style="stroke: #A80036; stroke-width: 1.0;" x1="41.5" x2="218.5" y1="71.4297" y2="71.4297"/><text fill="#000000" font-family="sans-serif" font-size="13" lengthAdjust="spacingAndGlyphs" textLength="69" x="48.5" y="66.3638">GET /fridge</text><polygon fill="#A80036" points="321.5,96.5625,331.5,100.5625,321.5,104.5625,325.5,100.5625" style="stroke: #A80036; stroke-width: 1.0;"/><line style="stroke: #A80036; stroke-width: 1.0;" x1="234.5" x2="327.5" y1="100.5625" y2="100.5625"/><text fill="#000000" font-family="sans-serif" font-size="13" lengthAdjust="spacingAndGlyphs" textLength="70" x="241.5" y="95.4966">getFridge()</text><polygon fill="#A80036" points="440.5,125.6953,450.5,129.6953,440.5,133.6953,444.5,129.6953" style="stroke: #A80036; stroke-width: 1.0;"/><line style="stroke: #A80036; stroke-width: 1.0;" x1="343.5" x2="446.5" y1="129.6953" y2="129.6953"/><text fill="#000000" font-family="sans-serif" font-size="13" lengthAdjust="spacingAndGlyphs" textLength="85" x="350.5" y="124.6294">getInstance()</text><rect fill="#FEFECE" filter="url(#f433l4ss85ic6)" height="30.2969" style="stroke: #A80036; stroke-width: 1.5;" width="184" x="452.5" y="108.5625"/><text fill="#000000" font-family="sans-serif" font-size="14" lengthAdjust="spacingAndGlyphs" textLength="170" x="459.5" y="128.5576">FridgeController.f: Fridge</text><line style="stroke: #A80036; stroke-width: 1.0; stroke-dasharray: 2.0,2.0;" x1="551.5" x2="593.5" y1="174.9922" y2="174.9922"/><line style="stroke: #A80036; stroke-width: 1.0; stroke-dasharray: 2.0,2.0;" x1="593.5" x2="593.5" y1="174.9922" y2="187.9922"/><line style="stroke: #A80036; stroke-width: 1.0; stroke-dasharray: 2.0,2.0;" x1="552.5" x2="593.5" y1="187.9922" y2="187.9922"/><polygon fill="#A80036" points="562.5,183.9922,552.5,187.9922,562.5,191.9922,558.5,187.9922" style="stroke: #A80036; stroke-width: 1.0;"/><text fill="#000000" font-family="sans-serif" font-size="13" lengthAdjust="spacingAndGlyphs" textLength="78" x="558.5" y="169.9263">readFridge()</text><polygon fill="#A80036" points="354.5,213.125,344.5,217.125,354.5,221.125,350.5,217.125" style="stroke: #A80036; stroke-width: 1.0;"/><line style="stroke: #A80036; stroke-width: 1.0; stroke-dasharray: 2.0,2.0;" x1="348.5" x2="545.5" y1="217.125" y2="217.125"/><text fill="#000000" font-family="sans-serif" font-size="13" lengthAdjust="spacingAndGlyphs" textLength="62" x="360.5" y="212.0591">getFood()</text><polygon fill="#A80036" points="245.5,227.125,235.5,231.125,245.5,235.125,241.5,231.125" style="stroke: #A80036; stroke-width: 1.0;"/><line style="stroke: #A80036; stroke-width: 1.0; stroke-dasharray: 2.0,2.0;" x1="239.5" x2="332.5" y1="231.125" y2="231.125"/><polygon fill="#A80036" points="52.5,241.125,42.5,245.125,52.5,249.125,48.5,245.125" style="stroke: #A80036; stroke-width: 1.0;"/><line style="stroke: #A80036; stroke-width: 1.0; stroke-dasharray: 2.0,2.0;" x1="46.5" x2="228.5" y1="245.125" y2="245.125"/><line style="stroke: #A80036; stroke-width: 1.0; stroke-dasharray: 2.0,2.0;" x1="41.5" x2="83.5" y1="274.2578" y2="274.2578"/><line style="stroke: #A80036; stroke-width: 1.0; stroke-dasharray: 2.0,2.0;" x1="83.5" x2="83.5" y1="274.2578" y2="287.2578"/><line style="stroke: #A80036; stroke-width: 1.0; stroke-dasharray: 2.0,2.0;" x1="42.5" x2="83.5" y1="287.2578" y2="287.2578"/><polygon fill="#A80036" points="52.5,283.2578,42.5,287.2578,52.5,291.2578,48.5,287.2578" style="stroke: #A80036; stroke-width: 1.0;"/><text fill="#000000" font-family="sans-serif" font-size="13" lengthAdjust="spacingAndGlyphs" textLength="169" x="48.5" y="269.1919">Traiter les données reçues</text><!--MD5=[902a113a5de8c38a5cf679e85ffbf34a]
@startuml getFridge
participant ": Front" as ft
participant ": Back" as bk
participant ": FridgeController" as fc

activate ft
ft -> bk: GET /fridge
activate bk
bk -> fc: getFridge()
activate fc
create "FridgeController.f: Fridge" as f
fc -> f: getInstance()
activate f
f - -> f: readFridge()
f - -> fc: getFood()
deactivate f
fc - -> bk
bk - -> ft
deactivate bk
ft <- - ft: Traiter les données reçues

@enduml

PlantUML version 1.2020.18(Wed Sep 30 21:40:44 CEST 2020)
(GPL source distribution)
Java Runtime: OpenJDK Runtime Environment
JVM: OpenJDK 64-Bit Server VM
Default Encoding: UTF-8
Language: fr
Country: FR
--></g></svg>