<?xml version="1.0" encoding="UTF-8" standalone="no"?><svg xmlns="http://www.w3.org/2000/svg" xmlns:xlink="http://www.w3.org/1999/xlink" contentScriptType="application/ecmascript" contentStyleType="text/css" height="454px" preserveAspectRatio="none" style="width:931px;height:454px;" version="1.1" viewBox="0 0 931 454" width="931px" zoomAndPan="magnify"><defs><filter height="300%" id="f31cv03s330ds" width="300%" x="-1" y="-1"><feGaussianBlur result="blurOut" stdDeviation="2.0"/><feColorMatrix in="blurOut" result="blurOut2" type="matrix" values="0 0 0 0 0 0 0 0 0 0 0 0 0 0 0 0 0 0 .4 0"/><feOffset dx="4.0" dy="4.0" in="blurOut2" result="blurOut3"/><feBlend in="SourceGraphic" in2="blurOut3" mode="normal"/></filter></defs><g><rect fill="#FFFFFF" filter="url(#f31cv03s330ds)" height="233.0625" style="stroke: #A80036; stroke-width: 1.0;" width="10" x="299" y="119.4297"/><rect fill="#FFFFFF" filter="url(#f31cv03s330ds)" height="58.2656" style="stroke: #A80036; stroke-width: 1.0;" width="10" x="576" y="265.0938"/><rect fill="#FFFFFF" filter="url(#f31cv03s330ds)" height="29.1328" style="stroke: #A80036; stroke-width: 1.0;" width="10" x="865" y="148.5625"/><line style="stroke: #A80036; stroke-width: 1.0; stroke-dasharray: 5.0,5.0;" x1="24" x2="24" y1="88.2969" y2="370.4922"/><line style="stroke: #A80036; stroke-width: 1.0; stroke-dasharray: 5.0,5.0;" x1="303.5" x2="303.5" y1="88.2969" y2="370.4922"/><line style="stroke: #A80036; stroke-width: 1.0; stroke-dasharray: 5.0,5.0;" x1="580.5" x2="580.5" y1="88.2969" y2="370.4922"/><line style="stroke: #A80036; stroke-width: 1.0; stroke-dasharray: 5.0,5.0;" x1="870" x2="870" y1="88.2969" y2="370.4922"/><text fill="#000000" font-family="sans-serif" font-size="14" lengthAdjust="spacingAndGlyphs" textLength="32" x="5" y="84.9951">User</text><ellipse cx="24" cy="15" fill="#FEFECE" filter="url(#f31cv03s330ds)" rx="8" ry="8" style="stroke: #A80036; stroke-width: 2.0;"/><path d="M24,23 L24,50 M11,31 L37,31 M24,50 L11,65 M24,50 L37,65 " fill="none" filter="url(#f31cv03s330ds)" style="stroke: #A80036; stroke-width: 2.0;"/><text fill="#000000" font-family="sans-serif" font-size="14" lengthAdjust="spacingAndGlyphs" textLength="32" x="5" y="382.4873">User</text><ellipse cx="24" cy="395.7891" fill="#FEFECE" filter="url(#f31cv03s330ds)" rx="8" ry="8" style="stroke: #A80036; stroke-width: 2.0;"/><path d="M24,403.7891 L24,430.7891 M11,411.7891 L37,411.7891 M24,430.7891 L11,445.7891 M24,430.7891 L37,445.7891 " fill="none" filter="url(#f31cv03s330ds)" style="stroke: #A80036; stroke-width: 2.0;"/><rect fill="#FEFECE" filter="url(#f31cv03s330ds)" height="30.2969" style="stroke: #A80036; stroke-width: 1.5;" width="59" x="272.5" y="53"/><text fill="#000000" font-family="sans-serif" font-size="14" lengthAdjust="spacingAndGlyphs" textLength="45" x="279.5" y="72.9951">: Front</text><rect fill="#FEFECE" filter="url(#f31cv03s330ds)" height="30.2969" style="stroke: #A80036; stroke-width: 1.5;" width="59" x="272.5" y="369.4922"/><text fill="#000000" font-family="sans-serif" font-size="14" lengthAdjust="spacingAndGlyphs" textLength="45" x="279.5" y="389.4873">: Front</text><rect fill="#FEFECE" filter="url(#f31cv03s330ds)" height="30.2969" style="stroke: #A80036; stroke-width: 1.5;" width="57" x="550.5" y="53"/><text fill="#000000" font-family="sans-serif" font-size="14" lengthAdjust="spacingAndGlyphs" textLength="43" x="557.5" y="72.9951">: Back</text><rect fill="#FEFECE" filter="url(#f31cv03s330ds)" height="30.2969" style="stroke: #A80036; stroke-width: 1.5;" width="57" x="550.5" y="369.4922"/><text fill="#000000" font-family="sans-serif" font-size="14" lengthAdjust="spacingAndGlyphs" textLength="43" x="557.5" y="389.4873">: Back</text><rect fill="#FEFECE" filter="url(#f31cv03s330ds)" height="30.2969" style="stroke: #A80036; stroke-width: 1.5;" width="98" x="819" y="53"/><text fill="#000000" font-family="sans-serif" font-size="14" lengthAdjust="spacingAndGlyphs" textLength="84" x="826" y="72.9951">: API Google</text><rect fill="#FEFECE" filter="url(#f31cv03s330ds)" height="30.2969" style="stroke: #A80036; stroke-width: 1.5;" width="98" x="819" y="369.4922"/><text fill="#000000" font-family="sans-serif" font-size="14" lengthAdjust="spacingAndGlyphs" textLength="84" x="826" y="389.4873">: API Google</text><rect fill="#FFFFFF" filter="url(#f31cv03s330ds)" height="233.0625" style="stroke: #A80036; stroke-width: 1.0;" width="10" x="299" y="119.4297"/><rect fill="#FFFFFF" filter="url(#f31cv03s330ds)" height="58.2656" style="stroke: #A80036; stroke-width: 1.0;" width="10" x="576" y="265.0938"/><rect fill="#FFFFFF" filter="url(#f31cv03s330ds)" height="29.1328" style="stroke: #A80036; stroke-width: 1.0;" width="10" x="865" y="148.5625"/><polygon fill="#A80036" points="287,115.4297,297,119.4297,287,123.4297,291,119.4297" style="stroke: #A80036; stroke-width: 1.0;"/><line style="stroke: #A80036; stroke-width: 1.0;" x1="24" x2="293" y1="119.4297" y2="119.4297"/><text fill="#000000" font-family="sans-serif" font-size="13" font-weight="bold" lengthAdjust="spacingAndGlyphs" textLength="9" x="31" y="114.3638">1</text><text fill="#000000" font-family="sans-serif" font-size="13" lengthAdjust="spacingAndGlyphs" textLength="215" x="44" y="114.3638">cliquer sur "Cartes des magasins"</text><polygon fill="#A80036" points="853,144.5625,863,148.5625,853,152.5625,857,148.5625" style="stroke: #A80036; stroke-width: 1.0;"/><line style="stroke: #A80036; stroke-width: 1.0;" x1="309" x2="859" y1="148.5625" y2="148.5625"/><text fill="#000000" font-family="sans-serif" font-size="13" font-weight="bold" lengthAdjust="spacingAndGlyphs" textLength="9" x="316" y="143.4966">2</text><text fill="#000000" font-family="sans-serif" font-size="13" lengthAdjust="spacingAndGlyphs" textLength="142" x="329" y="143.4966">authentifier au service</text><polygon fill="#A80036" points="320,173.6953,310,177.6953,320,181.6953,316,177.6953" style="stroke: #A80036; stroke-width: 1.0;"/><line style="stroke: #A80036; stroke-width: 1.0; stroke-dasharray: 2.0,2.0;" x1="314" x2="869" y1="177.6953" y2="177.6953"/><text fill="#000000" font-family="sans-serif" font-size="13" font-weight="bold" lengthAdjust="spacingAndGlyphs" textLength="9" x="326" y="172.6294">3</text><text fill="#000000" font-family="sans-serif" font-size="13" lengthAdjust="spacingAndGlyphs" textLength="230" x="339" y="172.6294">permission de l'affichage de la carte</text><polygon fill="#A80036" points="35,202.8281,25,206.8281,35,210.8281,31,206.8281" style="stroke: #A80036; stroke-width: 1.0;"/><line style="stroke: #A80036; stroke-width: 1.0; stroke-dasharray: 2.0,2.0;" x1="29" x2="298" y1="206.8281" y2="206.8281"/><text fill="#000000" font-family="sans-serif" font-size="13" font-weight="bold" lengthAdjust="spacingAndGlyphs" textLength="9" x="41" y="201.7622">4</text><text fill="#000000" font-family="sans-serif" font-size="13" lengthAdjust="spacingAndGlyphs" textLength="99" x="54" y="201.7622">afficher la carte</text><polygon fill="#A80036" points="569,231.9609,579,235.9609,569,239.9609,573,235.9609" style="stroke: #A80036; stroke-width: 1.0;"/><line style="stroke: #A80036; stroke-width: 1.0;" x1="309" x2="575" y1="235.9609" y2="235.9609"/><text fill="#000000" font-family="sans-serif" font-size="13" font-weight="bold" lengthAdjust="spacingAndGlyphs" textLength="9" x="316" y="230.895">5</text><text fill="#000000" font-family="sans-serif" font-size="13" lengthAdjust="spacingAndGlyphs" textLength="137" x="329" y="230.895">GET /map/{lat}/{lng}</text><polygon fill="#A80036" points="858,261.0938,868,265.0938,858,269.0938,862,265.0938" style="stroke: #A80036; stroke-width: 1.0;"/><line style="stroke: #A80036; stroke-width: 1.0;" x1="586" x2="864" y1="265.0938" y2="265.0938"/><text fill="#000000" font-family="sans-serif" font-size="13" font-weight="bold" lengthAdjust="spacingAndGlyphs" textLength="9" x="593" y="260.0278">6</text><text fill="#000000" font-family="sans-serif" font-size="13" lengthAdjust="spacingAndGlyphs" textLength="209" x="606" y="260.0278">demande des magasins proches</text><polygon fill="#A80036" points="597,290.2266,587,294.2266,597,298.2266,593,294.2266" style="stroke: #A80036; stroke-width: 1.0;"/><line style="stroke: #A80036; stroke-width: 1.0; stroke-dasharray: 2.0,2.0;" x1="591" x2="869" y1="294.2266" y2="294.2266"/><text fill="#000000" font-family="sans-serif" font-size="13" font-weight="bold" lengthAdjust="spacingAndGlyphs" textLength="9" x="603" y="289.1606">7</text><text fill="#000000" font-family="sans-serif" font-size="13" lengthAdjust="spacingAndGlyphs" textLength="247" x="616" y="289.1606">informations sur les magasins proches</text><polygon fill="#A80036" points="320,319.3594,310,323.3594,320,327.3594,316,323.3594" style="stroke: #A80036; stroke-width: 1.0;"/><line style="stroke: #A80036; stroke-width: 1.0; stroke-dasharray: 2.0,2.0;" x1="314" x2="580" y1="323.3594" y2="323.3594"/><text fill="#000000" font-family="sans-serif" font-size="13" font-weight="bold" lengthAdjust="spacingAndGlyphs" textLength="9" x="326" y="318.2935">8</text><text fill="#000000" font-family="sans-serif" font-size="13" lengthAdjust="spacingAndGlyphs" textLength="230" x="339" y="318.2935">réponse liste des magasins proches</text><polygon fill="#A80036" points="35,348.4922,25,352.4922,35,356.4922,31,352.4922" style="stroke: #A80036; stroke-width: 1.0;"/><line style="stroke: #A80036; stroke-width: 1.0; stroke-dasharray: 2.0,2.0;" x1="29" x2="303" y1="352.4922" y2="352.4922"/><text fill="#000000" font-family="sans-serif" font-size="13" font-weight="bold" lengthAdjust="spacingAndGlyphs" textLength="9" x="41" y="347.4263">9</text><text fill="#000000" font-family="sans-serif" font-size="13" lengthAdjust="spacingAndGlyphs" textLength="238" x="54" y="347.4263">afficher map de la liste des magasins</text><!--MD5=[c9c3cb34dac3aa9847bf784c4f7f685e]
@startuml mapSystem
autonumber
actor User
participant ": Front" as frontend
participant ": Back" as backend
participant ": API Google" as google

User -> frontend: cliquer sur "Cartes des magasins"
activate frontend
frontend -> google: authentifier au service
activate google
google - -> frontend: permission de l'affichage de la carte
deactivate google
frontend - -> User: afficher la carte

frontend -> backend: GET /map/{lat}/{lng}
backend -> google: demande des magasins proches
activate backend
google - -> backend: informations sur les magasins proches
backend - -> frontend: réponse liste des magasins proches
deactivate backend
frontend - -> User: afficher map de la liste des magasins
deactivate frontend

@enduml

PlantUML version 1.2020.18(Wed Sep 30 21:40:44 CEST 2020)
(GPL source distribution)
Java Runtime: OpenJDK Runtime Environment
JVM: OpenJDK 64-Bit Server VM
Default Encoding: UTF-8
Language: fr
Country: FR
--></g></svg>