<?xml version="1.0" encoding="UTF-8" standalone="no"?><svg xmlns="http://www.w3.org/2000/svg" xmlns:xlink="http://www.w3.org/1999/xlink" contentScriptType="application/ecmascript" contentStyleType="text/css" height="348px" preserveAspectRatio="none" style="width:703px;height:348px;" version="1.1" viewBox="0 0 703 348" width="703px" zoomAndPan="magnify"><defs><filter height="300%" id="f12kfghk6tlzhp" width="300%" x="-1" y="-1"><feGaussianBlur result="blurOut" stdDeviation="2.0"/><feColorMatrix in="blurOut" result="blurOut2" type="matrix" values="0 0 0 0 0 0 0 0 0 0 0 0 0 0 0 0 0 0 .4 0"/><feOffset dx="4.0" dy="4.0" in="blurOut2" result="blurOut3"/><feBlend in="SourceGraphic" in2="blurOut3" mode="normal"/></filter></defs><g><rect fill="#FFFFFF" filter="url(#f12kfghk6tlzhp)" height="245.9609" style="stroke: #A80036; stroke-width: 1.0;" width="10" x="31.5" y="50.2969"/><rect fill="#FFFFFF" filter="url(#f12kfghk6tlzhp)" height="173.6953" style="stroke: #A80036; stroke-width: 1.0;" width="10" x="224.5" y="71.4297"/><rect fill="#FFFFFF" filter="url(#f12kfghk6tlzhp)" height="195.6953" style="stroke: #A80036; stroke-width: 1.0;" width="10" x="329.5" y="100.5625"/><rect fill="#FFFFFF" filter="url(#f12kfghk6tlzhp)" height="77.4297" style="stroke: #A80036; stroke-width: 1.0;" width="10" x="566" y="139.6953"/><line style="stroke: #A80036; stroke-width: 1.0; stroke-dasharray: 5.0,5.0;" x1="36" x2="36" y1="40.2969" y2="305.2578"/><line style="stroke: #A80036; stroke-width: 1.0; stroke-dasharray: 5.0,5.0;" x1="229" x2="229" y1="40.2969" y2="305.2578"/><line style="stroke: #A80036; stroke-width: 1.0; stroke-dasharray: 5.0,5.0;" x1="334" x2="334" y1="40.2969" y2="305.2578"/><line style="stroke: #A80036; stroke-width: 1.0; stroke-dasharray: 5.0,5.0;" x1="570.5" x2="570.5" y1="141.2109" y2="305.2578"/><rect fill="#FEFECE" filter="url(#f12kfghk6tlzhp)" height="30.2969" style="stroke: #A80036; stroke-width: 1.5;" width="59" x="5" y="5"/><text fill="#000000" font-family="sans-serif" font-size="14" lengthAdjust="spacingAndGlyphs" textLength="45" x="12" y="24.9951">: Front</text><rect fill="#FEFECE" filter="url(#f12kfghk6tlzhp)" height="30.2969" style="stroke: #A80036; stroke-width: 1.5;" width="59" x="5" y="304.2578"/><text fill="#000000" font-family="sans-serif" font-size="14" lengthAdjust="spacingAndGlyphs" textLength="45" x="12" y="324.2529">: Front</text><rect fill="#FEFECE" filter="url(#f12kfghk6tlzhp)" height="30.2969" style="stroke: #A80036; stroke-width: 1.5;" width="57" x="199" y="5"/><text fill="#000000" font-family="sans-serif" font-size="14" lengthAdjust="spacingAndGlyphs" textLength="43" x="206" y="24.9951">: Back</text><rect fill="#FEFECE" filter="url(#f12kfghk6tlzhp)" height="30.2969" style="stroke: #A80036; stroke-width: 1.5;" width="57" x="199" y="304.2578"/><text fill="#000000" font-family="sans-serif" font-size="14" lengthAdjust="spacingAndGlyphs" textLength="43" x="206" y="324.2529">: Back</text><rect fill="#FEFECE" filter="url(#f12kfghk6tlzhp)" height="30.2969" style="stroke: #A80036; stroke-width: 1.5;" width="125" x="270" y="5"/><text fill="#000000" font-family="sans-serif" font-size="14" lengthAdjust="spacingAndGlyphs" textLength="111" x="277" y="24.9951">: FoodController</text><rect fill="#FEFECE" filter="url(#f12kfghk6tlzhp)" height="30.2969" style="stroke: #A80036; stroke-width: 1.5;" width="125" x="270" y="304.2578"/><text fill="#000000" font-family="sans-serif" font-size="14" lengthAdjust="spacingAndGlyphs" textLength="111" x="277" y="324.2529">: FoodController</text><rect fill="#FEFECE" filter="url(#f12kfghk6tlzhp)" height="30.2969" style="stroke: #A80036; stroke-width: 1.5;" width="241" x="448.5" y="304.2578"/><text fill="#000000" font-family="sans-serif" font-size="14" lengthAdjust="spacingAndGlyphs" textLength="227" x="455.5" y="324.2529">FoodController.foodList: FoodList</text><rect fill="#FFFFFF" filter="url(#f12kfghk6tlzhp)" height="245.9609" style="stroke: #A80036; stroke-width: 1.0;" width="10" x="31.5" y="50.2969"/><rect fill="#FFFFFF" filter="url(#f12kfghk6tlzhp)" height="173.6953" style="stroke: #A80036; stroke-width: 1.0;" width="10" x="224.5" y="71.4297"/><rect fill="#FFFFFF" filter="url(#f12kfghk6tlzhp)" height="195.6953" style="stroke: #A80036; stroke-width: 1.0;" width="10" x="329.5" y="100.5625"/><rect fill="#FFFFFF" filter="url(#f12kfghk6tlzhp)" height="77.4297" style="stroke: #A80036; stroke-width: 1.0;" width="10" x="566" y="139.6953"/><polygon fill="#A80036" points="212.5,67.4297,222.5,71.4297,212.5,75.4297,216.5,71.4297" style="stroke: #A80036; stroke-width: 1.0;"/><line style="stroke: #A80036; stroke-width: 1.0;" x1="41.5" x2="218.5" y1="71.4297" y2="71.4297"/><text fill="#000000" font-family="sans-serif" font-size="13" lengthAdjust="spacingAndGlyphs" textLength="130" x="48.5" y="66.3638">GET /foods/{month}</text><polygon fill="#A80036" points="317.5,96.5625,327.5,100.5625,317.5,104.5625,321.5,100.5625" style="stroke: #A80036; stroke-width: 1.0;"/><line style="stroke: #A80036; stroke-width: 1.0;" x1="234.5" x2="323.5" y1="100.5625" y2="100.5625"/><text fill="#000000" font-family="sans-serif" font-size="13" lengthAdjust="spacingAndGlyphs" textLength="71" x="241.5" y="95.4966">getMonth()</text><polygon fill="#A80036" points="436.5,125.6953,446.5,129.6953,436.5,133.6953,440.5,129.6953" style="stroke: #A80036; stroke-width: 1.0;"/><line style="stroke: #A80036; stroke-width: 1.0;" x1="339.5" x2="442.5" y1="129.6953" y2="129.6953"/><text fill="#000000" font-family="sans-serif" font-size="13" lengthAdjust="spacingAndGlyphs" textLength="85" x="346.5" y="124.6294">getInstance()</text><rect fill="#FEFECE" filter="url(#f12kfghk6tlzhp)" height="30.2969" style="stroke: #A80036; stroke-width: 1.5;" width="241" x="448.5" y="108.5625"/><text fill="#000000" font-family="sans-serif" font-size="14" lengthAdjust="spacingAndGlyphs" textLength="227" x="455.5" y="128.5576">FoodController.foodList: FoodList</text><line style="stroke: #A80036; stroke-width: 1.0; stroke-dasharray: 2.0,2.0;" x1="576" x2="618" y1="174.9922" y2="174.9922"/><line style="stroke: #A80036; stroke-width: 1.0; stroke-dasharray: 2.0,2.0;" x1="618" x2="618" y1="174.9922" y2="187.9922"/><line style="stroke: #A80036; stroke-width: 1.0; stroke-dasharray: 2.0,2.0;" x1="577" x2="618" y1="187.9922" y2="187.9922"/><polygon fill="#A80036" points="587,183.9922,577,187.9922,587,191.9922,583,187.9922" style="stroke: #A80036; stroke-width: 1.0;"/><text fill="#000000" font-family="sans-serif" font-size="13" lengthAdjust="spacingAndGlyphs" textLength="60" x="583" y="169.9263">readFile()</text><polygon fill="#A80036" points="350.5,213.125,340.5,217.125,350.5,221.125,346.5,217.125" style="stroke: #A80036; stroke-width: 1.0;"/><line style="stroke: #A80036; stroke-width: 1.0; stroke-dasharray: 2.0,2.0;" x1="344.5" x2="570" y1="217.125" y2="217.125"/><text fill="#000000" font-family="sans-serif" font-size="13" lengthAdjust="spacingAndGlyphs" textLength="171" x="356.5" y="212.0591">getFoodFromGivenMonth()</text><polygon fill="#A80036" points="245.5,227.125,235.5,231.125,245.5,235.125,241.5,231.125" style="stroke: #A80036; stroke-width: 1.0;"/><line style="stroke: #A80036; stroke-width: 1.0; stroke-dasharray: 2.0,2.0;" x1="239.5" x2="328.5" y1="231.125" y2="231.125"/><polygon fill="#A80036" points="52.5,241.125,42.5,245.125,52.5,249.125,48.5,245.125" style="stroke: #A80036; stroke-width: 1.0;"/><line style="stroke: #A80036; stroke-width: 1.0; stroke-dasharray: 2.0,2.0;" x1="46.5" x2="228.5" y1="245.125" y2="245.125"/><line style="stroke: #A80036; stroke-width: 1.0; stroke-dasharray: 2.0,2.0;" x1="41.5" x2="83.5" y1="274.2578" y2="274.2578"/><line style="stroke: #A80036; stroke-width: 1.0; stroke-dasharray: 2.0,2.0;" x1="83.5" x2="83.5" y1="274.2578" y2="287.2578"/><line style="stroke: #A80036; stroke-width: 1.0; stroke-dasharray: 2.0,2.0;" x1="42.5" x2="83.5" y1="287.2578" y2="287.2578"/><polygon fill="#A80036" points="52.5,283.2578,42.5,287.2578,52.5,291.2578,48.5,287.2578" style="stroke: #A80036; stroke-width: 1.0;"/><text fill="#000000" font-family="sans-serif" font-size="13" lengthAdjust="spacingAndGlyphs" textLength="169" x="48.5" y="269.1919">Traiter les données reçues</text><!--MD5=[9553f5769fcd3d9627c016537a70ae62]
@startuml monthFilter
participant ": Front" as ft
participant ": Back" as bk
participant ": FoodController" as fc

activate ft
ft -> bk: GET /foods/{month}
activate bk
bk -> fc: getMonth()
activate fc
create "FoodController.foodList: FoodList" as fd1
fc -> fd1: getInstance()
activate fd1
fd1 - -> fd1: readFile()
fd1 - -> fc: getFoodFromGivenMonth()
deactivate fd1
fc - -> bk
bk - -> ft
deactivate bk
ft <- - ft: Traiter les données reçues

@enduml

PlantUML version 1.2020.18(Wed Sep 30 21:40:44 CEST 2020)
(GPL source distribution)
Java Runtime: OpenJDK Runtime Environment
JVM: OpenJDK 64-Bit Server VM
Default Encoding: UTF-8
Language: fr
Country: FR
--></g></svg>