<?xml version="1.0" encoding="UTF-8" standalone="no"?><svg xmlns="http://www.w3.org/2000/svg" xmlns:xlink="http://www.w3.org/1999/xlink" contentScriptType="application/ecmascript" contentStyleType="text/css" height="367px" preserveAspectRatio="none" style="width:562px;height:367px;" version="1.1" viewBox="0 0 562 367" width="562px" zoomAndPan="magnify"><defs><filter height="300%" id="f1r1k87kodd797" width="300%" x="-1" y="-1"><feGaussianBlur result="blurOut" stdDeviation="2.0"/><feColorMatrix in="blurOut" result="blurOut2" type="matrix" values="0 0 0 0 0 0 0 0 0 0 0 0 0 0 0 0 0 0 .4 0"/><feOffset dx="4.0" dy="4.0" in="blurOut2" result="blurOut3"/><feBlend in="SourceGraphic" in2="blurOut3" mode="normal"/></filter></defs><g><rect fill="#FFFFFF" filter="url(#f1r1k87kodd797)" height="87.3984" style="stroke: #A80036; stroke-width: 1.0;" width="10" x="291" y="119.4297"/><rect fill="#FFFFFF" filter="url(#f1r1k87kodd797)" height="29.1328" style="stroke: #A80036; stroke-width: 1.0;" width="10" x="291" y="235.9609"/><rect fill="#FFFFFF" filter="url(#f1r1k87kodd797)" height="29.1328" style="stroke: #A80036; stroke-width: 1.0;" width="10" x="517" y="148.5625"/><line style="stroke: #A80036; stroke-width: 1.0; stroke-dasharray: 5.0,5.0;" x1="24" x2="24" y1="88.2969" y2="283.0938"/><line style="stroke: #A80036; stroke-width: 1.0; stroke-dasharray: 5.0,5.0;" x1="295.5" x2="295.5" y1="88.2969" y2="283.0938"/><line style="stroke: #A80036; stroke-width: 1.0; stroke-dasharray: 5.0,5.0;" x1="521.5" x2="521.5" y1="88.2969" y2="283.0938"/><text fill="#000000" font-family="sans-serif" font-size="14" lengthAdjust="spacingAndGlyphs" textLength="32" x="5" y="84.9951">User</text><ellipse cx="24" cy="15" fill="#FEFECE" filter="url(#f1r1k87kodd797)" rx="8" ry="8" style="stroke: #A80036; stroke-width: 2.0;"/><path d="M24,23 L24,50 M11,31 L37,31 M24,50 L11,65 M24,50 L37,65 " fill="none" filter="url(#f1r1k87kodd797)" style="stroke: #A80036; stroke-width: 2.0;"/><text fill="#000000" font-family="sans-serif" font-size="14" lengthAdjust="spacingAndGlyphs" textLength="32" x="5" y="295.0889">User</text><ellipse cx="24" cy="308.3906" fill="#FEFECE" filter="url(#f1r1k87kodd797)" rx="8" ry="8" style="stroke: #A80036; stroke-width: 2.0;"/><path d="M24,316.3906 L24,343.3906 M11,324.3906 L37,324.3906 M24,343.3906 L11,358.3906 M24,343.3906 L37,358.3906 " fill="none" filter="url(#f1r1k87kodd797)" style="stroke: #A80036; stroke-width: 2.0;"/><rect fill="#FEFECE" filter="url(#f1r1k87kodd797)" height="30.2969" style="stroke: #A80036; stroke-width: 1.5;" width="59" x="264.5" y="53"/><text fill="#000000" font-family="sans-serif" font-size="14" lengthAdjust="spacingAndGlyphs" textLength="45" x="271.5" y="72.9951">: Front</text><rect fill="#FEFECE" filter="url(#f1r1k87kodd797)" height="30.2969" style="stroke: #A80036; stroke-width: 1.5;" width="59" x="264.5" y="282.0938"/><text fill="#000000" font-family="sans-serif" font-size="14" lengthAdjust="spacingAndGlyphs" textLength="45" x="271.5" y="302.0889">: Front</text><rect fill="#FEFECE" filter="url(#f1r1k87kodd797)" height="30.2969" style="stroke: #A80036; stroke-width: 1.5;" width="57" x="491.5" y="53"/><text fill="#000000" font-family="sans-serif" font-size="14" lengthAdjust="spacingAndGlyphs" textLength="43" x="498.5" y="72.9951">: Back</text><rect fill="#FEFECE" filter="url(#f1r1k87kodd797)" height="30.2969" style="stroke: #A80036; stroke-width: 1.5;" width="57" x="491.5" y="282.0938"/><text fill="#000000" font-family="sans-serif" font-size="14" lengthAdjust="spacingAndGlyphs" textLength="43" x="498.5" y="302.0889">: Back</text><rect fill="#FFFFFF" filter="url(#f1r1k87kodd797)" height="87.3984" style="stroke: #A80036; stroke-width: 1.0;" width="10" x="291" y="119.4297"/><rect fill="#FFFFFF" filter="url(#f1r1k87kodd797)" height="29.1328" style="stroke: #A80036; stroke-width: 1.0;" width="10" x="291" y="235.9609"/><rect fill="#FFFFFF" filter="url(#f1r1k87kodd797)" height="29.1328" style="stroke: #A80036; stroke-width: 1.0;" width="10" x="517" y="148.5625"/><polygon fill="#A80036" points="279,115.4297,289,119.4297,279,123.4297,283,119.4297" style="stroke: #A80036; stroke-width: 1.0;"/><line style="stroke: #A80036; stroke-width: 1.0;" x1="24" x2="285" y1="119.4297" y2="119.4297"/><text fill="#000000" font-family="sans-serif" font-size="13" font-weight="bold" lengthAdjust="spacingAndGlyphs" textLength="9" x="31" y="114.3638">1</text><text fill="#000000" font-family="sans-serif" font-size="13" lengthAdjust="spacingAndGlyphs" textLength="113" x="44" y="114.3638">cliquer sur mois X</text><polygon fill="#A80036" points="505,144.5625,515,148.5625,505,152.5625,509,148.5625" style="stroke: #A80036; stroke-width: 1.0;"/><line style="stroke: #A80036; stroke-width: 1.0;" x1="301" x2="511" y1="148.5625" y2="148.5625"/><text fill="#000000" font-family="sans-serif" font-size="13" font-weight="bold" lengthAdjust="spacingAndGlyphs" textLength="9" x="308" y="143.4966">2</text><text fill="#000000" font-family="sans-serif" font-size="13" lengthAdjust="spacingAndGlyphs" textLength="96" x="321" y="143.4966">GET /foods/{X}</text><polygon fill="#A80036" points="312,173.6953,302,177.6953,312,181.6953,308,177.6953" style="stroke: #A80036; stroke-width: 1.0;"/><line style="stroke: #A80036; stroke-width: 1.0; stroke-dasharray: 2.0,2.0;" x1="306" x2="521" y1="177.6953" y2="177.6953"/><text fill="#000000" font-family="sans-serif" font-size="13" font-weight="bold" lengthAdjust="spacingAndGlyphs" textLength="9" x="318" y="172.6294">3</text><text fill="#000000" font-family="sans-serif" font-size="13" lengthAdjust="spacingAndGlyphs" textLength="179" x="331" y="172.6294">liste des légumes du mois X</text><polygon fill="#A80036" points="35,202.8281,25,206.8281,35,210.8281,31,206.8281" style="stroke: #A80036; stroke-width: 1.0;"/><line style="stroke: #A80036; stroke-width: 1.0; stroke-dasharray: 2.0,2.0;" x1="29" x2="295" y1="206.8281" y2="206.8281"/><text fill="#000000" font-family="sans-serif" font-size="13" font-weight="bold" lengthAdjust="spacingAndGlyphs" textLength="9" x="41" y="201.7622">4</text><text fill="#000000" font-family="sans-serif" font-size="13" lengthAdjust="spacingAndGlyphs" textLength="230" x="54" y="201.7622">afficher liste des légumes du mois X</text><polygon fill="#A80036" points="279,231.9609,289,235.9609,279,239.9609,283,235.9609" style="stroke: #A80036; stroke-width: 1.0;"/><line style="stroke: #A80036; stroke-width: 1.0;" x1="24" x2="285" y1="235.9609" y2="235.9609"/><text fill="#000000" font-family="sans-serif" font-size="13" font-weight="bold" lengthAdjust="spacingAndGlyphs" textLength="9" x="31" y="230.895">5</text><text fill="#000000" font-family="sans-serif" font-size="13" lengthAdjust="spacingAndGlyphs" textLength="149" x="44" y="230.895">cliquer sur un légume Y</text><polygon fill="#A80036" points="35,261.0938,25,265.0938,35,269.0938,31,265.0938" style="stroke: #A80036; stroke-width: 1.0;"/><line style="stroke: #A80036; stroke-width: 1.0; stroke-dasharray: 2.0,2.0;" x1="29" x2="295" y1="265.0938" y2="265.0938"/><text fill="#000000" font-family="sans-serif" font-size="13" font-weight="bold" lengthAdjust="spacingAndGlyphs" textLength="9" x="41" y="260.0278">6</text><text fill="#000000" font-family="sans-serif" font-size="13" lengthAdjust="spacingAndGlyphs" textLength="214" x="54" y="260.0278">afficher informations du légume Y</text><!--MD5=[e5773ea00ad86d91f05a737668a679cd]
@startuml monthFilterSystem
actor User
autonumber

participant ": Front" as frontend
participant ": Back" as backend

User -> frontend: cliquer sur mois X
activate frontend
frontend -> backend: GET /foods/{X}
activate backend
backend - -> frontend: liste des légumes du mois X
deactivate backend
User <- - frontend: afficher liste des légumes du mois X
deactivate frontend
User -> frontend: cliquer sur un légume Y
activate frontend
User <- - frontend: afficher informations du légume Y
deactivate frontend
@enduml

PlantUML version 1.2020.18(Wed Sep 30 21:40:44 CEST 2020)
(GPL source distribution)
Java Runtime: OpenJDK Runtime Environment
JVM: OpenJDK 64-Bit Server VM
Default Encoding: UTF-8
Language: fr
Country: FR
--></g></svg>