<?xml version="1.0" encoding="UTF-8" standalone="no"?><svg xmlns="http://www.w3.org/2000/svg" xmlns:xlink="http://www.w3.org/1999/xlink" contentScriptType="application/ecmascript" contentStyleType="text/css" height="298px" preserveAspectRatio="none" style="width:612px;height:298px;" version="1.1" viewBox="0 0 612 298" width="612px" zoomAndPan="magnify"><defs><filter height="300%" id="f1jz2bu3nweysl" width="300%" x="-1" y="-1"><feGaussianBlur result="blurOut" stdDeviation="2.0"/><feColorMatrix in="blurOut" result="blurOut2" type="matrix" values="0 0 0 0 0 0 0 0 0 0 0 0 0 0 0 0 0 0 .4 0"/><feOffset dx="4.0" dy="4.0" in="blurOut2" result="blurOut3"/><feBlend in="SourceGraphic" in2="blurOut3" mode="normal"/></filter></defs><g><rect fill="#FFFFFF" filter="url(#f1jz2bu3nweysl)" height="193.6641" style="stroke: #A80036; stroke-width: 1.0;" width="10" x="30" y="51.6094"/><rect fill="#FFFFFF" filter="url(#f1jz2bu3nweysl)" height="118.9609" style="stroke: #A80036; stroke-width: 1.0;" width="10" x="207" y="73.9609"/><rect fill="#FFFFFF" filter="url(#f1jz2bu3nweysl)" height="74.6094" style="stroke: #A80036; stroke-width: 1.0;" width="10" x="309" y="104.3125"/><rect fill="#FFFFFF" filter="url(#f1jz2bu3nweysl)" height="20.2578" style="stroke: #A80036; stroke-width: 1.0;" width="10" x="507.5" y="144.6641"/><line style="stroke: #A80036; stroke-width: 1.0; stroke-dasharray: 5.0,5.0;" x1="35" x2="35" y1="41.6094" y2="254.2734"/><line style="stroke: #A80036; stroke-width: 1.0; stroke-dasharray: 5.0,5.0;" x1="211.5" x2="211.5" y1="41.6094" y2="254.2734"/><line style="stroke: #A80036; stroke-width: 1.0; stroke-dasharray: 5.0,5.0;" x1="313.5" x2="313.5" y1="41.6094" y2="254.2734"/><line style="stroke: #A80036; stroke-width: 1.0; stroke-dasharray: 5.0,5.0;" x1="512" x2="512" y1="145.6172" y2="254.2734"/><rect fill="#FEFECE" filter="url(#f1jz2bu3nweysl)" height="31.6094" style="stroke: #A80036; stroke-width: 1.5;" width="56" x="5" y="5"/><text fill="#000000" font-family="sans-serif" font-size="14" lengthAdjust="spacingAndGlyphs" textLength="42" x="12" y="26.5332">: Front</text><rect fill="#FEFECE" filter="url(#f1jz2bu3nweysl)" height="31.6094" style="stroke: #A80036; stroke-width: 1.5;" width="56" x="5" y="253.2734"/><text fill="#000000" font-family="sans-serif" font-size="14" lengthAdjust="spacingAndGlyphs" textLength="42" x="12" y="274.8066">: Front</text><rect fill="#FEFECE" filter="url(#f1jz2bu3nweysl)" height="31.6094" style="stroke: #A80036; stroke-width: 1.5;" width="53" x="183.5" y="5"/><text fill="#000000" font-family="sans-serif" font-size="14" lengthAdjust="spacingAndGlyphs" textLength="39" x="190.5" y="26.5332">: Back</text><rect fill="#FEFECE" filter="url(#f1jz2bu3nweysl)" height="31.6094" style="stroke: #A80036; stroke-width: 1.5;" width="53" x="183.5" y="253.2734"/><text fill="#000000" font-family="sans-serif" font-size="14" lengthAdjust="spacingAndGlyphs" textLength="39" x="190.5" y="274.8066">: Back</text><rect fill="#FEFECE" filter="url(#f1jz2bu3nweysl)" height="31.6094" style="stroke: #A80036; stroke-width: 1.5;" width="115" x="254.5" y="5"/><text fill="#000000" font-family="sans-serif" font-size="14" lengthAdjust="spacingAndGlyphs" textLength="101" x="261.5" y="26.5332">: HelloController</text><rect fill="#FEFECE" filter="url(#f1jz2bu3nweysl)" height="31.6094" style="stroke: #A80036; stroke-width: 1.5;" width="115" x="254.5" y="253.2734"/><text fill="#000000" font-family="sans-serif" font-size="14" lengthAdjust="spacingAndGlyphs" textLength="101" x="261.5" y="274.8066">: HelloController</text><rect fill="#FEFECE" filter="url(#f1jz2bu3nweysl)" height="31.6094" style="stroke: #A80036; stroke-width: 1.5;" width="175" x="423" y="253.2734"/><text fill="#000000" font-family="sans-serif" font-size="14" lengthAdjust="spacingAndGlyphs" textLength="161" x="430" y="274.8066">HelloController.r: Recipes</text><rect fill="#FFFFFF" filter="url(#f1jz2bu3nweysl)" height="193.6641" style="stroke: #A80036; stroke-width: 1.0;" width="10" x="30" y="51.6094"/><rect fill="#FFFFFF" filter="url(#f1jz2bu3nweysl)" height="118.9609" style="stroke: #A80036; stroke-width: 1.0;" width="10" x="207" y="73.9609"/><rect fill="#FFFFFF" filter="url(#f1jz2bu3nweysl)" height="74.6094" style="stroke: #A80036; stroke-width: 1.0;" width="10" x="309" y="104.3125"/><rect fill="#FFFFFF" filter="url(#f1jz2bu3nweysl)" height="20.2578" style="stroke: #A80036; stroke-width: 1.0;" width="10" x="507.5" y="144.6641"/><polygon fill="#A80036" points="195,69.9609,205,73.9609,195,77.9609,199,73.9609" style="stroke: #A80036; stroke-width: 1.0;"/><line style="stroke: #A80036; stroke-width: 1.0;" x1="40" x2="201" y1="73.9609" y2="73.9609"/><text fill="#000000" font-family="sans-serif" font-size="13" lengthAdjust="spacingAndGlyphs" textLength="76" x="47" y="69.1045">GET /recipes</text><polygon fill="#A80036" points="297,100.3125,307,104.3125,297,108.3125,301,104.3125" style="stroke: #A80036; stroke-width: 1.0;"/><line style="stroke: #A80036; stroke-width: 1.0;" x1="217" x2="303" y1="104.3125" y2="104.3125"/><text fill="#000000" font-family="sans-serif" font-size="13" lengthAdjust="spacingAndGlyphs" textLength="73" x="224" y="99.4561">getRecipes()</text><polygon fill="#A80036" points="411,130.6641,421,134.6641,411,138.6641,415,134.6641" style="stroke: #A80036; stroke-width: 1.0;"/><line style="stroke: #A80036; stroke-width: 1.0;" x1="319" x2="417" y1="134.6641" y2="134.6641"/><text fill="#000000" font-family="sans-serif" font-size="13" lengthAdjust="spacingAndGlyphs" textLength="80" x="326" y="129.8076">readRecipes()</text><rect fill="#FEFECE" filter="url(#f1jz2bu3nweysl)" height="31.6094" style="stroke: #A80036; stroke-width: 1.5;" width="175" x="423" y="112.3125"/><text fill="#000000" font-family="sans-serif" font-size="14" lengthAdjust="spacingAndGlyphs" textLength="161" x="430" y="133.8457">HelloController.r: Recipes</text><polygon fill="#A80036" points="330,160.9219,320,164.9219,330,168.9219,326,164.9219" style="stroke: #A80036; stroke-width: 1.0;"/><line style="stroke: #A80036; stroke-width: 1.0; stroke-dasharray: 2.0,2.0;" x1="324" x2="511.5" y1="164.9219" y2="164.9219"/><polygon fill="#A80036" points="228,174.9219,218,178.9219,228,182.9219,224,178.9219" style="stroke: #A80036; stroke-width: 1.0;"/><line style="stroke: #A80036; stroke-width: 1.0; stroke-dasharray: 2.0,2.0;" x1="222" x2="313" y1="178.9219" y2="178.9219"/><polygon fill="#A80036" points="51,188.9219,41,192.9219,51,196.9219,47,192.9219" style="stroke: #A80036; stroke-width: 1.0;"/><line style="stroke: #A80036; stroke-width: 1.0; stroke-dasharray: 2.0,2.0;" x1="45" x2="211" y1="192.9219" y2="192.9219"/><line style="stroke: #A80036; stroke-width: 1.0; stroke-dasharray: 2.0,2.0;" x1="40" x2="82" y1="223.2734" y2="223.2734"/><line style="stroke: #A80036; stroke-width: 1.0; stroke-dasharray: 2.0,2.0;" x1="82" x2="82" y1="223.2734" y2="236.2734"/><line style="stroke: #A80036; stroke-width: 1.0; stroke-dasharray: 2.0,2.0;" x1="41" x2="82" y1="236.2734" y2="236.2734"/><polygon fill="#A80036" points="51,232.2734,41,236.2734,51,240.2734,47,236.2734" style="stroke: #A80036; stroke-width: 1.0;"/><text fill="#000000" font-family="sans-serif" font-size="13" lengthAdjust="spacingAndGlyphs" textLength="153" x="47" y="218.417">Traiter les données reçues</text><!--MD5=[44d1d95786a17e09e65f7748c971cead]
@startuml recipes

participant ": Front" as ft
participant ": Back" as bk
participant ": HelloController" as hc

activate ft
ft -> bk : GET /recipes
activate bk
bk -> hc : getRecipes()
activate hc
create "HelloController.r: Recipes" as r
hc -> r : readRecipes()
activate r
r - -> hc
deactivate r
hc - -> bk
deactivate hc
bk - -> ft
deactivate bk
ft <- - ft: Traiter les données reçues

@enduml

PlantUML version 1.2020.18(Wed Sep 30 21:40:44 CEST 2020)
(GPL source distribution)
Java Runtime: Java(TM) SE Runtime Environment
JVM: Java HotSpot(TM) 64-Bit Server VM
Default Encoding: Cp1252
Language: fr
Country: FR
--></g></svg>