<?xml version="1.0" encoding="UTF-8" standalone="no"?><svg xmlns="http://www.w3.org/2000/svg" xmlns:xlink="http://www.w3.org/1999/xlink" contentScriptType="application/ecmascript" contentStyleType="text/css" height="367px" preserveAspectRatio="none" style="width:1197px;height:367px;" version="1.1" viewBox="0 0 1197 367" width="1197px" zoomAndPan="magnify"><defs><filter height="300%" id="f1hz7y2qj5hr0" width="300%" x="-1" y="-1"><feGaussianBlur result="blurOut" stdDeviation="2.0"/><feColorMatrix in="blurOut" result="blurOut2" type="matrix" values="0 0 0 0 0 0 0 0 0 0 0 0 0 0 0 0 0 0 .4 0"/><feOffset dx="4.0" dy="4.0" in="blurOut2" result="blurOut3"/><feBlend in="SourceGraphic" in2="blurOut3" mode="normal"/></filter></defs><g><line style="stroke: #A80036; stroke-width: 1.0; stroke-dasharray: 5.0,5.0;" x1="24" x2="24" y1="88.2969" y2="283.0938"/><line style="stroke: #A80036; stroke-width: 1.0; stroke-dasharray: 5.0,5.0;" x1="349" x2="349" y1="88.2969" y2="283.0938"/><line style="stroke: #A80036; stroke-width: 1.0; stroke-dasharray: 5.0,5.0;" x1="590" x2="590" y1="88.2969" y2="283.0938"/><line style="stroke: #A80036; stroke-width: 1.0; stroke-dasharray: 5.0,5.0;" x1="1000.5" x2="1000.5" y1="88.2969" y2="283.0938"/><line style="stroke: #A80036; stroke-width: 1.0; stroke-dasharray: 5.0,5.0;" x1="1136.5" x2="1136.5" y1="88.2969" y2="283.0938"/><text fill="#000000" font-family="sans-serif" font-size="14" lengthAdjust="spacingAndGlyphs" textLength="32" x="5" y="84.9951">User</text><ellipse cx="24" cy="15" fill="#FEFECE" filter="url(#f1hz7y2qj5hr0)" rx="8" ry="8" style="stroke: #A80036; stroke-width: 2.0;"/><path d="M24,23 L24,50 M11,31 L37,31 M24,50 L11,65 M24,50 L37,65 " fill="none" filter="url(#f1hz7y2qj5hr0)" style="stroke: #A80036; stroke-width: 2.0;"/><text fill="#000000" font-family="sans-serif" font-size="14" lengthAdjust="spacingAndGlyphs" textLength="32" x="5" y="295.0889">User</text><ellipse cx="24" cy="308.3906" fill="#FEFECE" filter="url(#f1hz7y2qj5hr0)" rx="8" ry="8" style="stroke: #A80036; stroke-width: 2.0;"/><path d="M24,316.3906 L24,343.3906 M11,324.3906 L37,324.3906 M24,343.3906 L11,358.3906 M24,343.3906 L37,358.3906 " fill="none" filter="url(#f1hz7y2qj5hr0)" style="stroke: #A80036; stroke-width: 2.0;"/><rect fill="#FEFECE" filter="url(#f1hz7y2qj5hr0)" height="30.2969" style="stroke: #A80036; stroke-width: 1.5;" width="50" x="322" y="53"/><text fill="#000000" font-family="sans-serif" font-size="14" lengthAdjust="spacingAndGlyphs" textLength="36" x="329" y="72.9951">Front</text><rect fill="#FEFECE" filter="url(#f1hz7y2qj5hr0)" height="30.2969" style="stroke: #A80036; stroke-width: 1.5;" width="50" x="322" y="282.0938"/><text fill="#000000" font-family="sans-serif" font-size="14" lengthAdjust="spacingAndGlyphs" textLength="36" x="329" y="302.0889">Front</text><rect fill="#FEFECE" filter="url(#f1hz7y2qj5hr0)" height="30.2969" style="stroke: #A80036; stroke-width: 1.5;" width="48" x="564" y="53"/><text fill="#000000" font-family="sans-serif" font-size="14" lengthAdjust="spacingAndGlyphs" textLength="34" x="571" y="72.9951">Back</text><rect fill="#FEFECE" filter="url(#f1hz7y2qj5hr0)" height="30.2969" style="stroke: #A80036; stroke-width: 1.5;" width="48" x="564" y="282.0938"/><text fill="#000000" font-family="sans-serif" font-size="14" lengthAdjust="spacingAndGlyphs" textLength="34" x="571" y="302.0889">Back</text><rect fill="#FEFECE" filter="url(#f1hz7y2qj5hr0)" height="30.2969" style="stroke: #A80036; stroke-width: 1.5;" width="145" x="926.5" y="53"/><text fill="#000000" font-family="sans-serif" font-size="14" lengthAdjust="spacingAndGlyphs" textLength="131" x="933.5" y="72.9951">getExpirationAlert()</text><rect fill="#FEFECE" filter="url(#f1hz7y2qj5hr0)" height="30.2969" style="stroke: #A80036; stroke-width: 1.5;" width="145" x="926.5" y="282.0938"/><text fill="#000000" font-family="sans-serif" font-size="14" lengthAdjust="spacingAndGlyphs" textLength="131" x="933.5" y="302.0889">getExpirationAlert()</text><rect fill="#FEFECE" filter="url(#f1hz7y2qj5hr0)" height="30.2969" style="stroke: #A80036; stroke-width: 1.5;" width="98" x="1085.5" y="53"/><text fill="#000000" font-family="sans-serif" font-size="14" lengthAdjust="spacingAndGlyphs" textLength="84" x="1092.5" y="72.9951">readFridge()</text><rect fill="#FEFECE" filter="url(#f1hz7y2qj5hr0)" height="30.2969" style="stroke: #A80036; stroke-width: 1.5;" width="98" x="1085.5" y="282.0938"/><text fill="#000000" font-family="sans-serif" font-size="14" lengthAdjust="spacingAndGlyphs" textLength="84" x="1092.5" y="302.0889">readFridge()</text><polygon fill="#A80036" points="337,115.4297,347,119.4297,337,123.4297,341,119.4297" style="stroke: #A80036; stroke-width: 1.0;"/><line style="stroke: #A80036; stroke-width: 1.0;" x1="24" x2="343" y1="119.4297" y2="119.4297"/><text fill="#000000" font-family="sans-serif" font-size="13" font-weight="bold" lengthAdjust="spacingAndGlyphs" textLength="9" x="31" y="114.3638">1</text><text fill="#000000" font-family="sans-serif" font-size="13" lengthAdjust="spacingAndGlyphs" textLength="288" x="44" y="114.3638">Demande la liste des aliments dans son frigo</text><polygon fill="#A80036" points="578,144.5625,588,148.5625,578,152.5625,582,148.5625" style="stroke: #A80036; stroke-width: 1.0;"/><line style="stroke: #A80036; stroke-width: 1.0;" x1="349" x2="584" y1="148.5625" y2="148.5625"/><text fill="#000000" font-family="sans-serif" font-size="13" font-weight="bold" lengthAdjust="spacingAndGlyphs" textLength="9" x="356" y="143.4966">2</text><text fill="#000000" font-family="sans-serif" font-size="13" lengthAdjust="spacingAndGlyphs" textLength="204" x="369" y="143.4966">Requête de la liste des aliments</text><polygon fill="#A80036" points="989,173.6953,999,177.6953,989,181.6953,993,177.6953" style="stroke: #A80036; stroke-width: 1.0;"/><line style="stroke: #A80036; stroke-width: 1.0;" x1="590" x2="995" y1="177.6953" y2="177.6953"/><text fill="#000000" font-family="sans-serif" font-size="13" font-weight="bold" lengthAdjust="spacingAndGlyphs" textLength="9" x="597" y="172.6294">3</text><text fill="#000000" font-family="sans-serif" font-size="13" lengthAdjust="spacingAndGlyphs" textLength="374" x="610" y="172.6294">Requête de la liste des aliments actuellement dans le frigo</text><polygon fill="#A80036" points="601,202.8281,591,206.8281,601,210.8281,597,206.8281" style="stroke: #A80036; stroke-width: 1.0;"/><line style="stroke: #A80036; stroke-width: 1.0;" x1="595" x2="1135.5" y1="206.8281" y2="206.8281"/><text fill="#000000" font-family="sans-serif" font-size="13" font-weight="bold" lengthAdjust="spacingAndGlyphs" textLength="9" x="607" y="201.7622">4</text><text fill="#000000" font-family="sans-serif" font-size="13" lengthAdjust="spacingAndGlyphs" textLength="108" x="620" y="201.7622">Retourne un Json</text><polygon fill="#A80036" points="360,231.9609,350,235.9609,360,239.9609,356,235.9609" style="stroke: #A80036; stroke-width: 1.0;"/><line style="stroke: #A80036; stroke-width: 1.0;" x1="354" x2="589" y1="235.9609" y2="235.9609"/><text fill="#000000" font-family="sans-serif" font-size="13" font-weight="bold" lengthAdjust="spacingAndGlyphs" textLength="9" x="366" y="230.895">5</text><text fill="#000000" font-family="sans-serif" font-size="13" lengthAdjust="spacingAndGlyphs" textLength="85" x="379" y="230.895">Réponse Json</text><polygon fill="#A80036" points="35,261.0938,25,265.0938,35,269.0938,31,265.0938" style="stroke: #A80036; stroke-width: 1.0;"/><line style="stroke: #A80036; stroke-width: 1.0;" x1="29" x2="348" y1="265.0938" y2="265.0938"/><text fill="#000000" font-family="sans-serif" font-size="13" font-weight="bold" lengthAdjust="spacingAndGlyphs" textLength="9" x="41" y="260.0278">6</text><text fill="#000000" font-family="sans-serif" font-size="13" lengthAdjust="spacingAndGlyphs" textLength="59" x="54" y="260.0278">Affichage</text><!--MD5=[891843454d64b415cf54af6d5c27eee6]
@startuml
autonumber
actor User
User -> Front: Demande la liste des aliments dans son frigo
Front -> Back: Requête de la liste des aliments
Back -> "getExpirationAlert()": Requête de la liste des aliments actuellement dans le frigo
"readFridge()"-> Back: Retourne un Json
Back -> Front: Réponse Json
Front -> User: Affichage
@enduml

PlantUML version 1.2020.18(Wed Sep 30 21:40:44 CEST 2020)
(GPL source distribution)
Java Runtime: OpenJDK Runtime Environment
JVM: OpenJDK 64-Bit Server VM
Default Encoding: UTF-8
Language: fr
Country: FR
--></g></svg>