<?xml version="1.0" encoding="UTF-8" standalone="no"?><svg xmlns="http://www.w3.org/2000/svg" xmlns:xlink="http://www.w3.org/1999/xlink" contentScriptType="application/ecmascript" contentStyleType="text/css" height="367px" preserveAspectRatio="none" style="width:861px;height:367px;" version="1.1" viewBox="0 0 861 367" width="861px" zoomAndPan="magnify"><defs><filter height="300%" id="fhqnipg307y5m" width="300%" x="-1" y="-1"><feGaussianBlur result="blurOut" stdDeviation="2.0"/><feColorMatrix in="blurOut" result="blurOut2" type="matrix" values="0 0 0 0 0 0 0 0 0 0 0 0 0 0 0 0 0 0 .4 0"/><feOffset dx="4.0" dy="4.0" in="blurOut2" result="blurOut3"/><feBlend in="SourceGraphic" in2="blurOut3" mode="normal"/></filter></defs><g><line style="stroke: #A80036; stroke-width: 1.0; stroke-dasharray: 5.0,5.0;" x1="24" x2="24" y1="88.2969" y2="283.0938"/><line style="stroke: #A80036; stroke-width: 1.0; stroke-dasharray: 5.0,5.0;" x1="239" x2="239" y1="88.2969" y2="283.0938"/><line style="stroke: #A80036; stroke-width: 1.0; stroke-dasharray: 5.0,5.0;" x1="506" x2="506" y1="88.2969" y2="283.0938"/><line style="stroke: #A80036; stroke-width: 1.0; stroke-dasharray: 5.0,5.0;" x1="772.5" x2="772.5" y1="88.2969" y2="283.0938"/><text fill="#000000" font-family="sans-serif" font-size="14" lengthAdjust="spacingAndGlyphs" textLength="32" x="5" y="84.9951">User</text><ellipse cx="24" cy="15" fill="#FEFECE" filter="url(#fhqnipg307y5m)" rx="8" ry="8" style="stroke: #A80036; stroke-width: 2.0;"/><path d="M24,23 L24,50 M11,31 L37,31 M24,50 L11,65 M24,50 L37,65 " fill="none" filter="url(#fhqnipg307y5m)" style="stroke: #A80036; stroke-width: 2.0;"/><text fill="#000000" font-family="sans-serif" font-size="14" lengthAdjust="spacingAndGlyphs" textLength="32" x="5" y="295.0889">User</text><ellipse cx="24" cy="308.3906" fill="#FEFECE" filter="url(#fhqnipg307y5m)" rx="8" ry="8" style="stroke: #A80036; stroke-width: 2.0;"/><path d="M24,316.3906 L24,343.3906 M11,324.3906 L37,324.3906 M24,343.3906 L11,358.3906 M24,343.3906 L37,358.3906 " fill="none" filter="url(#fhqnipg307y5m)" style="stroke: #A80036; stroke-width: 2.0;"/><rect fill="#FEFECE" filter="url(#fhqnipg307y5m)" height="30.2969" style="stroke: #A80036; stroke-width: 1.5;" width="50" x="212" y="53"/><text fill="#000000" font-family="sans-serif" font-size="14" lengthAdjust="spacingAndGlyphs" textLength="36" x="219" y="72.9951">Front</text><rect fill="#FEFECE" filter="url(#fhqnipg307y5m)" height="30.2969" style="stroke: #A80036; stroke-width: 1.5;" width="50" x="212" y="282.0938"/><text fill="#000000" font-family="sans-serif" font-size="14" lengthAdjust="spacingAndGlyphs" textLength="36" x="219" y="302.0889">Front</text><rect fill="#FEFECE" filter="url(#fhqnipg307y5m)" height="30.2969" style="stroke: #A80036; stroke-width: 1.5;" width="48" x="480" y="53"/><text fill="#000000" font-family="sans-serif" font-size="14" lengthAdjust="spacingAndGlyphs" textLength="34" x="487" y="72.9951">Back</text><rect fill="#FEFECE" filter="url(#fhqnipg307y5m)" height="30.2969" style="stroke: #A80036; stroke-width: 1.5;" width="48" x="480" y="282.0938"/><text fill="#000000" font-family="sans-serif" font-size="14" lengthAdjust="spacingAndGlyphs" textLength="34" x="487" y="302.0889">Back</text><rect fill="#FEFECE" filter="url(#fhqnipg307y5m)" height="30.2969" style="stroke: #A80036; stroke-width: 1.5;" width="153" x="694.5" y="53"/><text fill="#000000" font-family="sans-serif" font-size="14" lengthAdjust="spacingAndGlyphs" textLength="139" x="701.5" y="72.9951">getExpirationAlerts()</text><rect fill="#FEFECE" filter="url(#fhqnipg307y5m)" height="30.2969" style="stroke: #A80036; stroke-width: 1.5;" width="153" x="694.5" y="282.0938"/><text fill="#000000" font-family="sans-serif" font-size="14" lengthAdjust="spacingAndGlyphs" textLength="139" x="701.5" y="302.0889">getExpirationAlerts()</text><polygon fill="#A80036" points="227,115.4297,237,119.4297,227,123.4297,231,119.4297" style="stroke: #A80036; stroke-width: 1.0;"/><line style="stroke: #A80036; stroke-width: 1.0;" x1="24" x2="233" y1="119.4297" y2="119.4297"/><text fill="#000000" font-family="sans-serif" font-size="13" font-weight="bold" lengthAdjust="spacingAndGlyphs" textLength="9" x="31" y="114.3638">1</text><text fill="#000000" font-family="sans-serif" font-size="13" lengthAdjust="spacingAndGlyphs" textLength="178" x="44" y="114.3638">Demande liste péremptions</text><polygon fill="#A80036" points="494,144.5625,504,148.5625,494,152.5625,498,148.5625" style="stroke: #A80036; stroke-width: 1.0;"/><line style="stroke: #A80036; stroke-width: 1.0;" x1="239" x2="500" y1="148.5625" y2="148.5625"/><text fill="#000000" font-family="sans-serif" font-size="13" font-weight="bold" lengthAdjust="spacingAndGlyphs" textLength="9" x="246" y="143.4966">2</text><text fill="#000000" font-family="sans-serif" font-size="13" lengthAdjust="spacingAndGlyphs" textLength="230" x="259" y="143.4966">Requête de la liste des péremptions</text><polygon fill="#A80036" points="761,173.6953,771,177.6953,761,181.6953,765,177.6953" style="stroke: #A80036; stroke-width: 1.0;"/><line style="stroke: #A80036; stroke-width: 1.0;" x1="506" x2="767" y1="177.6953" y2="177.6953"/><text fill="#000000" font-family="sans-serif" font-size="13" font-weight="bold" lengthAdjust="spacingAndGlyphs" textLength="9" x="513" y="172.6294">3</text><text fill="#000000" font-family="sans-serif" font-size="13" lengthAdjust="spacingAndGlyphs" textLength="230" x="526" y="172.6294">Requête de la liste des péremptions</text><polygon fill="#A80036" points="517,202.8281,507,206.8281,517,210.8281,513,206.8281" style="stroke: #A80036; stroke-width: 1.0;"/><line style="stroke: #A80036; stroke-width: 1.0;" x1="511" x2="772" y1="206.8281" y2="206.8281"/><text fill="#000000" font-family="sans-serif" font-size="13" font-weight="bold" lengthAdjust="spacingAndGlyphs" textLength="9" x="523" y="201.7622">4</text><text fill="#000000" font-family="sans-serif" font-size="13" lengthAdjust="spacingAndGlyphs" textLength="108" x="536" y="201.7622">Retourne un Json</text><polygon fill="#A80036" points="250,231.9609,240,235.9609,250,239.9609,246,235.9609" style="stroke: #A80036; stroke-width: 1.0;"/><line style="stroke: #A80036; stroke-width: 1.0;" x1="244" x2="505" y1="235.9609" y2="235.9609"/><text fill="#000000" font-family="sans-serif" font-size="13" font-weight="bold" lengthAdjust="spacingAndGlyphs" textLength="9" x="256" y="230.895">5</text><text fill="#000000" font-family="sans-serif" font-size="13" lengthAdjust="spacingAndGlyphs" textLength="85" x="269" y="230.895">Réponse Json</text><polygon fill="#A80036" points="35,261.0938,25,265.0938,35,269.0938,31,265.0938" style="stroke: #A80036; stroke-width: 1.0;"/><line style="stroke: #A80036; stroke-width: 1.0;" x1="29" x2="238" y1="265.0938" y2="265.0938"/><text fill="#000000" font-family="sans-serif" font-size="13" font-weight="bold" lengthAdjust="spacingAndGlyphs" textLength="9" x="41" y="260.0278">6</text><text fill="#000000" font-family="sans-serif" font-size="13" lengthAdjust="spacingAndGlyphs" textLength="59" x="54" y="260.0278">Affichage</text><!--MD5=[bac3b6ad580d5f5c099dea3db4d87f32]
@startuml
autonumber
actor User
User -> Front: Demande liste péremptions
Front -> Back: Requête de la liste des péremptions
Back -> "getExpirationAlerts()": Requête de la liste des péremptions
"getExpirationAlerts()"-> Back: Retourne un Json
Back -> Front: Réponse Json
Front -> User: Affichage
@enduml

PlantUML version 1.2020.18(Wed Sep 30 21:40:44 CEST 2020)
(GPL source distribution)
Java Runtime: OpenJDK Runtime Environment
JVM: OpenJDK 64-Bit Server VM
Default Encoding: UTF-8
Language: fr
Country: FR
--></g></svg>