<?xml version="1.0" encoding="UTF-8" standalone="no"?><svg xmlns="http://www.w3.org/2000/svg" xmlns:xlink="http://www.w3.org/1999/xlink" contentScriptType="application/ecmascript" contentStyleType="text/css" height="679px" preserveAspectRatio="none" style="width:2810px;height:679px;" version="1.1" viewBox="0 0 2810 679" width="2810px" zoomAndPan="magnify"><defs><filter height="300%" id="f17vrwbyvlscwp" width="300%" x="-1" y="-1"><feGaussianBlur result="blurOut" stdDeviation="2.0"/><feColorMatrix in="blurOut" result="blurOut2" type="matrix" values="0 0 0 0 0 0 0 0 0 0 0 0 0 0 0 0 0 0 .4 0"/><feOffset dx="4.0" dy="4.0" in="blurOut2" result="blurOut3"/><feBlend in="SourceGraphic" in2="blurOut3" mode="normal"/></filter></defs><g><!--MD5=[635d1654c4a036c639c6c4af9dfda15e]
cluster main.java.wadge--><polygon fill="#FFFFFF" filter="url(#f17vrwbyvlscwp)" points="16,6,153,6,160,28.2969,2793,28.2969,2793,672,16,672,16,6" style="stroke: #000000; stroke-width: 1.5;"/><line style="stroke: #000000; stroke-width: 1.5;" x1="16" x2="160" y1="28.2969" y2="28.2969"/><text fill="#000000" font-family="sans-serif" font-size="14" font-weight="bold" lengthAdjust="spacingAndGlyphs" textLength="131" x="20" y="20.9951">main.java.wadge</text><!--MD5=[47c14c564e796a575e671c2b0469a7bb]
cluster backend--><polygon fill="#FFFFFF" filter="url(#f17vrwbyvlscwp)" points="1223,49,1296,49,1303,71.2969,1973,71.2969,1973,302,1223,302,1223,49" style="stroke: #000000; stroke-width: 1.5;"/><line style="stroke: #000000; stroke-width: 1.5;" x1="1223" x2="1303" y1="71.2969" y2="71.2969"/><text fill="#000000" font-family="sans-serif" font-size="14" font-weight="bold" lengthAdjust="spacingAndGlyphs" textLength="67" x="1227" y="63.9951">backend</text><!--MD5=[1ff65103b48fb45cc8de8d0be20f3224]
cluster food_list--><polygon fill="#FFFFFF" filter="url(#f17vrwbyvlscwp)" points="722,358,794,358,801,380.2969,1166,380.2969,1166,495,722,495,722,358" style="stroke: #000000; stroke-width: 1.5;"/><line style="stroke: #000000; stroke-width: 1.5;" x1="722" x2="801" y1="380.2969" y2="380.2969"/><text fill="#000000" font-family="sans-serif" font-size="14" font-weight="bold" lengthAdjust="spacingAndGlyphs" textLength="66" x="726" y="372.9951">food_list</text><!--MD5=[1e7a8120a2bf51cfaec4a25405c6a6b0]
cluster fridge--><polygon fill="#FFFFFF" filter="url(#f17vrwbyvlscwp)" points="1190,326,1243,326,1250,348.2969,2395,348.2969,2395,648,1190,648,1190,326" style="stroke: #000000; stroke-width: 1.5;"/><line style="stroke: #000000; stroke-width: 1.5;" x1="1190" x2="1250" y1="348.2969" y2="348.2969"/><text fill="#000000" font-family="sans-serif" font-size="14" font-weight="bold" lengthAdjust="spacingAndGlyphs" textLength="47" x="1194" y="340.9951">fridge</text><!--MD5=[e061fb4732715491a1992364c7bceb19]
cluster google--><polygon fill="#FFFFFF" filter="url(#f17vrwbyvlscwp)" points="2419,351.5,2479,351.5,2486,373.7969,2769,373.7969,2769,501.5,2419,501.5,2419,351.5" style="stroke: #000000; stroke-width: 1.5;"/><line style="stroke: #000000; stroke-width: 1.5;" x1="2419" x2="2486" y1="373.7969" y2="373.7969"/><text fill="#000000" font-family="sans-serif" font-size="14" font-weight="bold" lengthAdjust="spacingAndGlyphs" textLength="54" x="2423" y="366.4951">google</text><!--MD5=[dc96b4f243af77830faaa10a462a89e2]
cluster recipe--><polygon fill="#FFFFFF" filter="url(#f17vrwbyvlscwp)" points="40,68.5,96,68.5,103,90.7969,698,90.7969,698,514.5,40,514.5,40,68.5" style="stroke: #000000; stroke-width: 1.5;"/><line style="stroke: #000000; stroke-width: 1.5;" x1="40" x2="103" y1="90.7969" y2="90.7969"/><text fill="#000000" font-family="sans-serif" font-size="14" font-weight="bold" lengthAdjust="spacingAndGlyphs" textLength="50" x="44" y="83.4951">recipe</text><!--MD5=[0b4e4b4980470ea387cc45de9bd14b5b]
class Application--><rect codeLine="3" fill="#FEFECE" filter="url(#f17vrwbyvlscwp)" height="60.8047" id="Application" style="stroke: #A80036; stroke-width: 1.5;" width="217" x="1739.5" y="154.5"/><ellipse cx="1809.25" cy="170.5" fill="#ADD1B2" rx="11" ry="11" style="stroke: #A80036; stroke-width: 1.0;"/><path d="M1812.2188,176.1406 Q1811.6406,176.4375 1811,176.5781 Q1810.3594,176.7344 1809.6563,176.7344 Q1807.1563,176.7344 1805.8281,175.0938 Q1804.5156,173.4375 1804.5156,170.3125 Q1804.5156,167.1875 1805.8281,165.5313 Q1807.1563,163.875 1809.6563,163.875 Q1810.3594,163.875 1811,164.0313 Q1811.6563,164.1875 1812.2188,164.4844 L1812.2188,167.2031 Q1811.5938,166.625 1811,166.3594 Q1810.4063,166.0781 1809.7813,166.0781 Q1808.4375,166.0781 1807.75,167.1563 Q1807.0625,168.2188 1807.0625,170.3125 Q1807.0625,172.4063 1807.75,173.4844 Q1808.4375,174.5469 1809.7813,174.5469 Q1810.4063,174.5469 1811,174.2813 Q1811.5938,174 1812.2188,173.4219 L1812.2188,176.1406 Z "/><text fill="#000000" font-family="sans-serif" font-size="12" lengthAdjust="spacingAndGlyphs" textLength="69" x="1829.75" y="174.6543">Application</text><line style="stroke: #A80036; stroke-width: 1.5;" x1="1740.5" x2="1955.5" y1="186.5" y2="186.5"/><line style="stroke: #A80036; stroke-width: 1.5;" x1="1740.5" x2="1955.5" y1="194.5" y2="194.5"/><ellipse cx="1750.5" cy="205.5" fill="#84BE84" rx="3" ry="3" style="stroke: #038048; stroke-width: 1.0;"/><text fill="#000000" font-family="sans-serif" font-size="11" lengthAdjust="spacingAndGlyphs" textLength="191" x="1759.5" y="208.7104">main(args: []string): void «static»</text><!--MD5=[1a456b2e505b83d3c08d879ddcfc51af]
class HelloControler--><rect codeLine="7" fill="#FEFECE" filter="url(#f17vrwbyvlscwp)" height="201.6563" id="HelloControler" style="stroke: #A80036; stroke-width: 1.5;" width="465" x="1239.5" y="84"/><ellipse cx="1423.25" cy="100" fill="#ADD1B2" rx="11" ry="11" style="stroke: #A80036; stroke-width: 1.0;"/><path d="M1426.2188,105.6406 Q1425.6406,105.9375 1425,106.0781 Q1424.3594,106.2344 1423.6563,106.2344 Q1421.1563,106.2344 1419.8281,104.5938 Q1418.5156,102.9375 1418.5156,99.8125 Q1418.5156,96.6875 1419.8281,95.0313 Q1421.1563,93.375 1423.6563,93.375 Q1424.3594,93.375 1425,93.5313 Q1425.6563,93.6875 1426.2188,93.9844 L1426.2188,96.7031 Q1425.5938,96.125 1425,95.8594 Q1424.4063,95.5781 1423.7813,95.5781 Q1422.4375,95.5781 1421.75,96.6563 Q1421.0625,97.7188 1421.0625,99.8125 Q1421.0625,101.9063 1421.75,102.9844 Q1422.4375,104.0469 1423.7813,104.0469 Q1424.4063,104.0469 1425,103.7813 Q1425.5938,103.5 1426.2188,102.9219 L1426.2188,105.6406 Z "/><text fill="#000000" font-family="sans-serif" font-size="12" lengthAdjust="spacingAndGlyphs" textLength="89" x="1443.75" y="104.1543">HelloControler</text><line style="stroke: #A80036; stroke-width: 1.5;" x1="1240.5" x2="1703.5" y1="116" y2="116"/><rect fill="none" height="6" style="stroke: #C82930; stroke-width: 1.0;" width="6" x="1247.5" y="124"/><text fill="#000000" font-family="sans-serif" font-size="11" lengthAdjust="spacingAndGlyphs" textLength="218" x="1259.5" y="130.2104">expirationTypes: List&lt;string&gt; «static»</text><rect fill="none" height="6" style="stroke: #C82930; stroke-width: 1.0;" width="6" x="1247.5" y="136.8047"/><text fill="#000000" font-family="sans-serif" font-size="11" lengthAdjust="spacingAndGlyphs" textLength="158" x="1259.5" y="143.0151">FRIDGE_FILE: string «static»</text><rect fill="none" height="6" style="stroke: #C82930; stroke-width: 1.0;" width="6" x="1247.5" y="149.6094"/><text fill="#000000" font-family="sans-serif" font-size="11" lengthAdjust="spacingAndGlyphs" textLength="150" x="1259.5" y="155.8198">FOOD_FILE: string «static»</text><line style="stroke: #A80036; stroke-width: 1.5;" x1="1240.5" x2="1703.5" y1="162.4141" y2="162.4141"/><ellipse cx="1250.5" cy="173.4141" fill="#84BE84" rx="3" ry="3" style="stroke: #038048; stroke-width: 1.0;"/><text fill="#000000" font-family="sans-serif" font-size="11" lengthAdjust="spacingAndGlyphs" textLength="297" x="1259.5" y="176.6245">createFridge(food: List&lt;Map&lt;string, object&gt;&gt;): void</text><ellipse cx="1250.5" cy="186.2188" fill="#84BE84" rx="3" ry="3" style="stroke: #038048; stroke-width: 1.0;"/><text fill="#000000" font-family="sans-serif" font-size="11" lengthAdjust="spacingAndGlyphs" textLength="322" x="1259.5" y="189.4292">readFile(): ResponseEntity&lt;List&lt;Map&lt;string, Object&gt;&gt;&gt;</text><ellipse cx="1250.5" cy="199.0234" fill="#84BE84" rx="3" ry="3" style="stroke: #038048; stroke-width: 1.0;"/><text fill="#000000" font-family="sans-serif" font-size="11" lengthAdjust="spacingAndGlyphs" textLength="345" x="1259.5" y="202.2339">readFridge2(): ResponseEntity&lt;List&lt;Map&lt;string, Object&gt;&gt;&gt;</text><ellipse cx="1250.5" cy="211.8281" fill="#84BE84" rx="3" ry="3" style="stroke: #038048; stroke-width: 1.0;"/><text fill="#000000" font-family="sans-serif" font-size="11" lengthAdjust="spacingAndGlyphs" textLength="406" x="1259.5" y="215.0386">getMonth(month: string): ResponseEntity&lt;List&lt;Map&lt;string, Object&gt;&gt;&gt;</text><ellipse cx="1250.5" cy="224.6328" fill="#84BE84" rx="3" ry="3" style="stroke: #038048; stroke-width: 1.0;"/><text fill="#000000" font-family="sans-serif" font-size="11" lengthAdjust="spacingAndGlyphs" textLength="402" x="1259.5" y="227.8433">getCloseShops(lat: double, lng: double): ResponseEntity&lt;JSONObject&gt;</text><ellipse cx="1250.5" cy="237.4375" fill="#84BE84" rx="3" ry="3" style="stroke: #038048; stroke-width: 1.0;"/><text fill="#000000" font-family="sans-serif" font-size="11" lengthAdjust="spacingAndGlyphs" textLength="439" x="1259.5" y="240.6479">getExpirationAlert(type: string): ResponseEntity&lt;List&lt;Map&lt;string, string&gt;&gt;&gt;</text><ellipse cx="1250.5" cy="250.2422" fill="#84BE84" rx="3" ry="3" style="stroke: #038048; stroke-width: 1.0;"/><text fill="#000000" font-family="sans-serif" font-size="11" lengthAdjust="spacingAndGlyphs" textLength="381" x="1259.5" y="253.4526">getExpirationAlerts(): ResponseEntity&lt;List&lt;Map&lt;string, string&gt;&gt;&gt;</text><ellipse cx="1250.5" cy="263.0469" fill="#84BE84" rx="3" ry="3" style="stroke: #038048; stroke-width: 1.0;"/><text fill="#000000" font-family="sans-serif" font-size="11" lengthAdjust="spacingAndGlyphs" textLength="339" x="1259.5" y="266.2573">getRecipes(): ResponseEntity&lt;List&lt;Map&lt;string, Object&gt;&gt;&gt;</text><ellipse cx="1250.5" cy="275.8516" fill="#84BE84" rx="3" ry="3" style="stroke: #038048; stroke-width: 1.0;"/><text fill="#000000" font-family="sans-serif" font-size="11" lengthAdjust="spacingAndGlyphs" textLength="338" x="1259.5" y="279.062">readFridge(): ResponseEntity&lt;List&lt;Map&lt;string, Object&gt;&gt;&gt;</text><!--MD5=[af09bfd437444f2a016652e712de3710]
class FoodList--><rect codeLine="25" fill="#FEFECE" filter="url(#f17vrwbyvlscwp)" height="86.4141" id="FoodList" style="stroke: #A80036; stroke-width: 1.5;" width="412" x="738" y="393"/><ellipse cx="913.75" cy="409" fill="#ADD1B2" rx="11" ry="11" style="stroke: #A80036; stroke-width: 1.0;"/><path d="M916.7188,414.6406 Q916.1406,414.9375 915.5,415.0781 Q914.8594,415.2344 914.1563,415.2344 Q911.6563,415.2344 910.3281,413.5938 Q909.0156,411.9375 909.0156,408.8125 Q909.0156,405.6875 910.3281,404.0313 Q911.6563,402.375 914.1563,402.375 Q914.8594,402.375 915.5,402.5313 Q916.1563,402.6875 916.7188,402.9844 L916.7188,405.7031 Q916.0938,405.125 915.5,404.8594 Q914.9063,404.5781 914.2813,404.5781 Q912.9375,404.5781 912.25,405.6563 Q911.5625,406.7188 911.5625,408.8125 Q911.5625,410.9063 912.25,411.9844 Q912.9375,413.0469 914.2813,413.0469 Q914.9063,413.0469 915.5,412.7813 Q916.0938,412.5 916.7188,411.9219 L916.7188,414.6406 Z "/><text fill="#000000" font-family="sans-serif" font-size="12" lengthAdjust="spacingAndGlyphs" textLength="52" x="934.25" y="413.1543">FoodList</text><line style="stroke: #A80036; stroke-width: 1.5;" x1="739" x2="1149" y1="425" y2="425"/><line style="stroke: #A80036; stroke-width: 1.5;" x1="739" x2="1149" y1="433" y2="433"/><rect fill="#F24D5C" height="6" style="stroke: #C82930; stroke-width: 1.0;" width="6" x="746" y="441"/><text fill="#000000" font-family="sans-serif" font-size="11" lengthAdjust="spacingAndGlyphs" textLength="29" x="758" y="447.2104">this()</text><ellipse cx="749" cy="456.8047" fill="#84BE84" rx="3" ry="3" style="stroke: #038048; stroke-width: 1.0;"/><text fill="#000000" font-family="sans-serif" font-size="11" lengthAdjust="spacingAndGlyphs" textLength="357" x="758" y="460.0151">readFile(fileName: string): List&lt;Map&lt;string, Object&gt;&gt; «static»</text><ellipse cx="749" cy="469.6094" fill="#84BE84" rx="3" ry="3" style="stroke: #038048; stroke-width: 1.0;"/><text fill="#000000" font-family="sans-serif" font-size="11" lengthAdjust="spacingAndGlyphs" textLength="386" x="758" y="472.8198">foodFromMonth(month: string): List&lt;Map&lt;string, Object&gt;&gt; «static»</text><!--MD5=[d68eada2be9143342946c6f226659502]
class Fridge--><rect codeLine="33" fill="#FEFECE" filter="url(#f17vrwbyvlscwp)" height="150.4375" id="Fridge" style="stroke: #A80036; stroke-width: 1.5;" width="606" x="1773" y="361"/><ellipse cx="2052.25" cy="377" fill="#ADD1B2" rx="11" ry="11" style="stroke: #A80036; stroke-width: 1.0;"/><path d="M2055.2188,382.6406 Q2054.6406,382.9375 2054,383.0781 Q2053.3594,383.2344 2052.6563,383.2344 Q2050.1563,383.2344 2048.8281,381.5938 Q2047.5156,379.9375 2047.5156,376.8125 Q2047.5156,373.6875 2048.8281,372.0313 Q2050.1563,370.375 2052.6563,370.375 Q2053.3594,370.375 2054,370.5313 Q2054.6563,370.6875 2055.2188,370.9844 L2055.2188,373.7031 Q2054.5938,373.125 2054,372.8594 Q2053.4063,372.5781 2052.7813,372.5781 Q2051.4375,372.5781 2050.75,373.6563 Q2050.0625,374.7188 2050.0625,376.8125 Q2050.0625,378.9063 2050.75,379.9844 Q2051.4375,381.0469 2052.7813,381.0469 Q2053.4063,381.0469 2054,380.7813 Q2054.5938,380.5 2055.2188,379.9219 L2055.2188,382.6406 Z "/><text fill="#000000" font-family="sans-serif" font-size="12" lengthAdjust="spacingAndGlyphs" textLength="39" x="2072.75" y="381.1543">Fridge</text><line style="stroke: #A80036; stroke-width: 1.5;" x1="1774" x2="2378" y1="393" y2="393"/><line style="stroke: #A80036; stroke-width: 1.5;" x1="1774" x2="2378" y1="401" y2="401"/><ellipse cx="1784" cy="412" fill="#84BE84" rx="3" ry="3" style="stroke: #038048; stroke-width: 1.0;"/><text fill="#000000" font-family="sans-serif" font-size="11" lengthAdjust="spacingAndGlyphs" textLength="384" x="1793" y="415.2104">writeFride(newElements: List&lt;Map&lt;string, Object&gt;&gt;): void «static»</text><ellipse cx="1784" cy="424.8047" fill="#84BE84" rx="3" ry="3" style="stroke: #038048; stroke-width: 1.0;"/><text fill="#000000" font-family="sans-serif" font-size="11" lengthAdjust="spacingAndGlyphs" textLength="501" x="1793" y="428.0151">mergeList(l1: List&lt;Map&lt;string, Object&gt;&gt;, l2: List&lt;Map&lt;string, Object&gt;&gt;): void «static»</text><ellipse cx="1784" cy="437.6094" fill="#84BE84" rx="3" ry="3" style="stroke: #038048; stroke-width: 1.0;"/><text fill="#000000" font-family="sans-serif" font-size="11" lengthAdjust="spacingAndGlyphs" textLength="357" x="1793" y="440.8198">readFile(fileName: string): List&lt;Map&lt;string, Object&gt;&gt; «static»</text><rect fill="#F24D5C" height="6" style="stroke: #C82930; stroke-width: 1.0;" width="6" x="1781" y="447.4141"/><text fill="#000000" font-family="sans-serif" font-size="11" lengthAdjust="spacingAndGlyphs" textLength="532" x="1793" y="453.6245">formatConverter(elements: List&lt;Map&lt;string, Object&gt;&gt;): List&lt;Map&lt;string, Object&gt;&gt; «static»</text><rect fill="#F24D5C" height="6" style="stroke: #C82930; stroke-width: 1.0;" width="6" x="1781" y="460.2188"/><text fill="#000000" font-family="sans-serif" font-size="11" lengthAdjust="spacingAndGlyphs" textLength="362" x="1793" y="466.4292">getKeys(list: List&lt;Map&lt;string, Object&gt;&gt;): List&lt;string&gt; «static»</text><rect fill="#F24D5C" height="6" style="stroke: #C82930; stroke-width: 1.0;" width="6" x="1781" y="473.0234"/><text fill="#000000" font-family="sans-serif" font-size="11" lengthAdjust="spacingAndGlyphs" textLength="397" x="1793" y="479.2339">listDifference(l1: List&lt;string&gt;, l2: List&lt;string&gt;): List&lt;string&gt; «static»</text><rect fill="#F24D5C" height="6" style="stroke: #C82930; stroke-width: 1.0;" width="6" x="1781" y="485.8281"/><text fill="#000000" font-family="sans-serif" font-size="11" lengthAdjust="spacingAndGlyphs" textLength="580" x="1793" y="492.0386">findElementInList(list: List&lt;Map&lt;string, Object&gt;&gt;, name: string): List&lt;Map&lt;string, Object&gt;&gt; «static»</text><rect fill="#F24D5C" height="6" style="stroke: #C82930; stroke-width: 1.0;" width="6" x="1781" y="498.6328"/><text fill="#000000" font-family="sans-serif" font-size="11" lengthAdjust="spacingAndGlyphs" textLength="420" x="1793" y="504.8433">addProductToElement(element: Map&lt;string, Object&gt;, elementToAdd: void</text><!--MD5=[3378661fb14bddae46da0beb7734cbb9]
class ExpirationRecall--><rect codeLine="45" fill="#FEFECE" filter="url(#f17vrwbyvlscwp)" height="124.8281" id="ExpirationRecall" style="stroke: #A80036; stroke-width: 1.5;" width="532" x="1206" y="373.5"/><ellipse cx="1418.25" cy="389.5" fill="#ADD1B2" rx="11" ry="11" style="stroke: #A80036; stroke-width: 1.0;"/><path d="M1421.2188,395.1406 Q1420.6406,395.4375 1420,395.5781 Q1419.3594,395.7344 1418.6563,395.7344 Q1416.1563,395.7344 1414.8281,394.0938 Q1413.5156,392.4375 1413.5156,389.3125 Q1413.5156,386.1875 1414.8281,384.5313 Q1416.1563,382.875 1418.6563,382.875 Q1419.3594,382.875 1420,383.0313 Q1420.6563,383.1875 1421.2188,383.4844 L1421.2188,386.2031 Q1420.5938,385.625 1420,385.3594 Q1419.4063,385.0781 1418.7813,385.0781 Q1417.4375,385.0781 1416.75,386.1563 Q1416.0625,387.2188 1416.0625,389.3125 Q1416.0625,391.4063 1416.75,392.4844 Q1417.4375,393.5469 1418.7813,393.5469 Q1419.4063,393.5469 1420,393.2813 Q1420.5938,393 1421.2188,392.4219 L1421.2188,395.1406 Z "/><text fill="#000000" font-family="sans-serif" font-size="12" lengthAdjust="spacingAndGlyphs" textLength="99" x="1438.75" y="393.6543">ExpirationRecall</text><line style="stroke: #A80036; stroke-width: 1.5;" x1="1207" x2="1737" y1="405.5" y2="405.5"/><rect fill="none" height="6" style="stroke: #C82930; stroke-width: 1.0;" width="6" x="1214" y="413.5"/><text fill="#000000" font-family="sans-serif" font-size="11" lengthAdjust="spacingAndGlyphs" textLength="232" x="1226" y="419.7104">dateFormater: SimpleDateFormat «final»</text><rect fill="none" height="6" style="stroke: #C82930; stroke-width: 1.0;" width="6" x="1214" y="426.3047"/><text fill="#000000" font-family="sans-serif" font-size="11" lengthAdjust="spacingAndGlyphs" textLength="143" x="1226" y="432.5151">currentDate: Date «final»</text><line style="stroke: #A80036; stroke-width: 1.5;" x1="1207" x2="1737" y1="439.1094" y2="439.1094"/><ellipse cx="1217" cy="450.1094" fill="#84BE84" rx="3" ry="3" style="stroke: #038048; stroke-width: 1.0;"/><text fill="#000000" font-family="sans-serif" font-size="11" lengthAdjust="spacingAndGlyphs" textLength="126" x="1226" y="453.3198">this(): ExpirationRecall</text><ellipse cx="1217" cy="462.9141" fill="#84BE84" rx="3" ry="3" style="stroke: #038048; stroke-width: 1.0;"/><text fill="#000000" font-family="sans-serif" font-size="11" lengthAdjust="spacingAndGlyphs" textLength="355" x="1226" y="466.1245">getExpirationList(type: RecallType): List&lt;Map&lt;string, string&gt;&gt;</text><rect fill="#F24D5C" height="6" style="stroke: #C82930; stroke-width: 1.0;" width="6" x="1214" y="472.7188"/><text fill="#000000" font-family="sans-serif" font-size="11" lengthAdjust="spacingAndGlyphs" textLength="276" x="1226" y="478.9292">dateDifference(d1: Date, d2: Date): long «static»</text><rect fill="#F24D5C" height="6" style="stroke: #C82930; stroke-width: 1.0;" width="6" x="1214" y="485.5234"/><text fill="#000000" font-family="sans-serif" font-size="11" lengthAdjust="spacingAndGlyphs" textLength="506" x="1226" y="491.7339">getExpirationDateFromPredicate(predicate Predicate&lt;Long&gt;): List&lt;Map&lt;string, string&gt;&gt;</text><!--MD5=[8671ffeb4c291327de3cf6ba4a126a87]
class RecallType--><rect codeLine="56" fill="#FEFECE" filter="url(#f17vrwbyvlscwp)" height="60.8047" id="RecallType" style="stroke: #A80036; stroke-width: 1.5;" width="370" x="1287" y="571"/><ellipse cx="1434.75" cy="587" fill="#EB937F" rx="11" ry="11" style="stroke: #A80036; stroke-width: 1.0;"/><path d="M1438.8594,593 L1431.1406,593 L1431.1406,580.6094 L1438.8594,580.6094 L1438.8594,582.7656 L1433.5938,582.7656 L1433.5938,585.4375 L1438.3594,585.4375 L1438.3594,587.5938 L1433.5938,587.5938 L1433.5938,590.8438 L1438.8594,590.8438 L1438.8594,593 Z "/><text fill="#000000" font-family="sans-serif" font-size="12" lengthAdjust="spacingAndGlyphs" textLength="66" x="1455.25" y="591.1543">RecallType</text><line style="stroke: #A80036; stroke-width: 1.5;" x1="1288" x2="1656" y1="603" y2="603"/><text fill="#000000" font-family="sans-serif" font-size="11" lengthAdjust="spacingAndGlyphs" textLength="358" x="1293" y="617.2104">TWO_DAYS, FIVE_DAYS, SEVEN_DAYS, FORTEEN_DAYS, EXPIRED</text><line style="stroke: #A80036; stroke-width: 1.5;" x1="1288" x2="1656" y1="623.8047" y2="623.8047"/><!--MD5=[d5a630d213adc2e3986060bd811a90b1]
class Search--><rect codeLine="62" fill="#FEFECE" filter="url(#f17vrwbyvlscwp)" height="99.2188" id="Search" style="stroke: #A80036; stroke-width: 1.5;" width="317" x="2435.5" y="386.5"/><ellipse cx="2567.75" cy="402.5" fill="#ADD1B2" rx="11" ry="11" style="stroke: #A80036; stroke-width: 1.0;"/><path d="M2570.7188,408.1406 Q2570.1406,408.4375 2569.5,408.5781 Q2568.8594,408.7344 2568.1563,408.7344 Q2565.6563,408.7344 2564.3281,407.0938 Q2563.0156,405.4375 2563.0156,402.3125 Q2563.0156,399.1875 2564.3281,397.5313 Q2565.6563,395.875 2568.1563,395.875 Q2568.8594,395.875 2569.5,396.0313 Q2570.1563,396.1875 2570.7188,396.4844 L2570.7188,399.2031 Q2570.0938,398.625 2569.5,398.3594 Q2568.9063,398.0781 2568.2813,398.0781 Q2566.9375,398.0781 2566.25,399.1563 Q2565.5625,400.2188 2565.5625,402.3125 Q2565.5625,404.4063 2566.25,405.4844 Q2566.9375,406.5469 2568.2813,406.5469 Q2568.9063,406.5469 2569.5,406.2813 Q2570.0938,406 2570.7188,405.4219 L2570.7188,408.1406 Z "/><text fill="#000000" font-family="sans-serif" font-size="12" lengthAdjust="spacingAndGlyphs" textLength="44" x="2588.25" y="406.6543">Search</text><line style="stroke: #A80036; stroke-width: 1.5;" x1="2436.5" x2="2751.5" y1="418.5" y2="418.5"/><rect fill="none" height="6" style="stroke: #C82930; stroke-width: 1.0;" width="6" x="2443.5" y="426.5"/><text fill="#000000" font-family="sans-serif" font-size="11" lengthAdjust="spacingAndGlyphs" textLength="139" x="2455.5" y="432.7104">KEY: string «static final»</text><line style="stroke: #A80036; stroke-width: 1.5;" x1="2436.5" x2="2751.5" y1="439.3047" y2="439.3047"/><ellipse cx="2446.5" cy="450.3047" fill="#84BE84" rx="3" ry="3" style="stroke: #038048; stroke-width: 1.0;"/><text fill="#000000" font-family="sans-serif" font-size="11" lengthAdjust="spacingAndGlyphs" textLength="291" x="2455.5" y="453.5151">jsonToFile(fileName: string, json: JSONObject): void</text><ellipse cx="2446.5" cy="463.1094" fill="#84BE84" rx="3" ry="3" style="stroke: #038048; stroke-width: 1.0;"/><text fill="#000000" font-family="sans-serif" font-size="11" lengthAdjust="spacingAndGlyphs" textLength="255" x="2455.5" y="466.3198">request(lat: double, lng: double): JSONObject</text><ellipse cx="2446.5" cy="475.9141" fill="#84BE84" rx="3" ry="3" style="stroke: #038048; stroke-width: 1.0;"/><text fill="#000000" font-family="sans-serif" font-size="11" lengthAdjust="spacingAndGlyphs" textLength="225" x="2455.5" y="479.1245">parseJSON(json: JSONArray): JSONArray</text><!--MD5=[20418cb98520644da1e87dc0310aa74a]
class Recipe--><rect codeLine="71" fill="#FEFECE" filter="url(#f17vrwbyvlscwp)" height="124.8281" id="Recipe" style="stroke: #A80036; stroke-width: 1.5;" width="626" x="56" y="373.5"/><ellipse cx="343.75" cy="389.5" fill="#ADD1B2" rx="11" ry="11" style="stroke: #A80036; stroke-width: 1.0;"/><path d="M346.7188,395.1406 Q346.1406,395.4375 345.5,395.5781 Q344.8594,395.7344 344.1563,395.7344 Q341.6563,395.7344 340.3281,394.0938 Q339.0156,392.4375 339.0156,389.3125 Q339.0156,386.1875 340.3281,384.5313 Q341.6563,382.875 344.1563,382.875 Q344.8594,382.875 345.5,383.0313 Q346.1563,383.1875 346.7188,383.4844 L346.7188,386.2031 Q346.0938,385.625 345.5,385.3594 Q344.9063,385.0781 344.2813,385.0781 Q342.9375,385.0781 342.25,386.1563 Q341.5625,387.2188 341.5625,389.3125 Q341.5625,391.4063 342.25,392.4844 Q342.9375,393.5469 344.2813,393.5469 Q344.9063,393.5469 345.5,393.2813 Q346.0938,393 346.7188,392.4219 L346.7188,395.1406 Z "/><text fill="#000000" font-family="sans-serif" font-size="12" lengthAdjust="spacingAndGlyphs" textLength="42" x="364.25" y="393.6543">Recipe</text><line style="stroke: #A80036; stroke-width: 1.5;" x1="57" x2="681" y1="405.5" y2="405.5"/><rect fill="none" height="6" style="stroke: #C82930; stroke-width: 1.0;" width="6" x="64" y="413.5"/><text fill="#000000" font-family="sans-serif" font-size="11" lengthAdjust="spacingAndGlyphs" textLength="115" x="76" y="419.7104">name: string «final»</text><rect fill="none" height="6" style="stroke: #C82930; stroke-width: 1.0;" width="6" x="64" y="426.3047"/><text fill="#000000" font-family="sans-serif" font-size="11" lengthAdjust="spacingAndGlyphs" textLength="153" x="76" y="432.5151">steps: List&lt;string&gt; «final»</text><rect fill="none" height="6" style="stroke: #C82930; stroke-width: 1.0;" width="6" x="64" y="439.1094"/><text fill="#000000" font-family="sans-serif" font-size="11" lengthAdjust="spacingAndGlyphs" textLength="131" x="76" y="445.3198">quantity: Object «final»</text><rect fill="none" height="6" style="stroke: #C82930; stroke-width: 1.0;" width="6" x="64" y="451.9141"/><text fill="#000000" font-family="sans-serif" font-size="11" lengthAdjust="spacingAndGlyphs" textLength="221" x="76" y="458.1245">ingredient: List&lt;Map&lt;string, Object&gt;&gt;</text><line style="stroke: #A80036; stroke-width: 1.5;" x1="57" x2="681" y1="464.7188" y2="464.7188"/><ellipse cx="67" cy="475.7188" fill="#84BE84" rx="3" ry="3" style="stroke: #038048; stroke-width: 1.0;"/><text fill="#000000" font-family="sans-serif" font-size="11" lengthAdjust="spacingAndGlyphs" textLength="600" x="76" y="478.9292">this(name: String, steps: List&lt;string&gt;, quantity: Object, ingredients: List&lt;Map&lt;string, Object&gt;&gt;): Recipe</text><ellipse cx="67" cy="488.5234" fill="#84BE84" rx="3" ry="3" style="stroke: #038048; stroke-width: 1.0;"/><text fill="#000000" font-family="sans-serif" font-size="11" lengthAdjust="spacingAndGlyphs" textLength="291" x="76" y="491.7339">readRecipes(): List&lt;Map&lt;string, Object&gt;&gt; «static»</text><!--MD5=[af2ff4966b6fe3f1b22099f410951421]
class RecipeBuilder--><rect codeLine="80" fill="#FEFECE" filter="url(#f17vrwbyvlscwp)" height="163.2422" id="RecipeBuilder" style="stroke: #A80036; stroke-width: 1.5;" width="434" x="152" y="103.5"/><ellipse cx="322.25" cy="119.5" fill="#ADD1B2" rx="11" ry="11" style="stroke: #A80036; stroke-width: 1.0;"/><path d="M325.2188,125.1406 Q324.6406,125.4375 324,125.5781 Q323.3594,125.7344 322.6563,125.7344 Q320.1563,125.7344 318.8281,124.0938 Q317.5156,122.4375 317.5156,119.3125 Q317.5156,116.1875 318.8281,114.5313 Q320.1563,112.875 322.6563,112.875 Q323.3594,112.875 324,113.0313 Q324.6563,113.1875 325.2188,113.4844 L325.2188,116.2031 Q324.5938,115.625 324,115.3594 Q323.4063,115.0781 322.7813,115.0781 Q321.4375,115.0781 320.75,116.1563 Q320.0625,117.2188 320.0625,119.3125 Q320.0625,121.4063 320.75,122.4844 Q321.4375,123.5469 322.7813,123.5469 Q323.4063,123.5469 324,123.2813 Q324.5938,123 325.2188,122.4219 L325.2188,125.1406 Z "/><text fill="#000000" font-family="sans-serif" font-size="12" lengthAdjust="spacingAndGlyphs" textLength="85" x="342.75" y="123.6543">RecipeBuilder</text><line style="stroke: #A80036; stroke-width: 1.5;" x1="153" x2="585" y1="135.5" y2="135.5"/><rect fill="none" height="6" style="stroke: #C82930; stroke-width: 1.0;" width="6" x="160" y="143.5"/><text fill="#000000" font-family="sans-serif" font-size="11" lengthAdjust="spacingAndGlyphs" textLength="115" x="172" y="149.7104">name: string «final»</text><rect fill="none" height="6" style="stroke: #C82930; stroke-width: 1.0;" width="6" x="160" y="156.3047"/><text fill="#000000" font-family="sans-serif" font-size="11" lengthAdjust="spacingAndGlyphs" textLength="153" x="172" y="162.5151">steps: List&lt;string&gt; «final»</text><rect fill="none" height="6" style="stroke: #C82930; stroke-width: 1.0;" width="6" x="160" y="169.1094"/><text fill="#000000" font-family="sans-serif" font-size="11" lengthAdjust="spacingAndGlyphs" textLength="131" x="172" y="175.3198">quantity: Object «final»</text><rect fill="none" height="6" style="stroke: #C82930; stroke-width: 1.0;" width="6" x="160" y="181.9141"/><text fill="#000000" font-family="sans-serif" font-size="11" lengthAdjust="spacingAndGlyphs" textLength="221" x="172" y="188.1245">ingredient: List&lt;Map&lt;string, Object&gt;&gt;</text><line style="stroke: #A80036; stroke-width: 1.5;" x1="153" x2="585" y1="194.7188" y2="194.7188"/><ellipse cx="163" cy="205.7188" fill="#84BE84" rx="3" ry="3" style="stroke: #038048; stroke-width: 1.0;"/><text fill="#000000" font-family="sans-serif" font-size="11" lengthAdjust="spacingAndGlyphs" textLength="187" x="172" y="208.9292">this(name: string): RecipeBuilder</text><ellipse cx="163" cy="218.5234" fill="#84BE84" rx="3" ry="3" style="stroke: #038048; stroke-width: 1.0;"/><text fill="#000000" font-family="sans-serif" font-size="11" lengthAdjust="spacingAndGlyphs" textLength="260" x="172" y="221.7339">withSteps(steps: List&lt;string&gt;): RecipeBuilder</text><ellipse cx="163" cy="231.3281" fill="#84BE84" rx="3" ry="3" style="stroke: #038048; stroke-width: 1.0;"/><text fill="#000000" font-family="sans-serif" font-size="11" lengthAdjust="spacingAndGlyphs" textLength="252" x="172" y="234.5386">withQuantity(quantity: Object): RecipeBuilder</text><ellipse cx="163" cy="244.1328" fill="#84BE84" rx="3" ry="3" style="stroke: #038048; stroke-width: 1.0;"/><text fill="#000000" font-family="sans-serif" font-size="11" lengthAdjust="spacingAndGlyphs" textLength="408" x="172" y="247.3433">withIngredients(ingredients: List&lt;Map&lt;string, Object&gt;&gt;): RecipeBuilder</text><ellipse cx="163" cy="256.9375" fill="#84BE84" rx="3" ry="3" style="stroke: #038048; stroke-width: 1.0;"/><text fill="#000000" font-family="sans-serif" font-size="11" lengthAdjust="spacingAndGlyphs" textLength="104" x="172" y="260.1479">generate(): Recipe</text><!--MD5=[8c1461d21096083f1ad9d0ee163fa124]
link ExpirationRecall to RecallType--><path codeLine="54" d="M1472,510.81 C1472,510.81 1472,543.45 1472,557.41 " fill="none" id="ExpirationRecall-RecallType" style="stroke: #A80036; stroke-width: 1.0; stroke-dasharray: 7.0,7.0;"/><polygon fill="#A80036" points="1472,570.63,1476,561.63,1472,565.63,1468,561.63,1472,570.63" style="stroke: #A80036; stroke-width: 1.0;"/><line style="stroke: #A80036; stroke-width: 1.0;" x1="1472" x2="1472" y1="565.63" y2="557.63"/><polygon fill="#FFFFFF" points="1472,498.81,1468,504.81,1472,510.81,1476,504.81,1472,498.81" style="stroke: #A80036; stroke-width: 1.0;"/><!--MD5=[4399b6889e7fd543dfa04730389d0b58]
link RecipeBuilder to Recipe--><path codeLine="91" d="M369,278.84 C369,278.84 369,335.03 369,360.25 " fill="none" id="RecipeBuilder-Recipe" style="stroke: #A80036; stroke-width: 1.0; stroke-dasharray: 7.0,7.0;"/><polygon fill="#A80036" points="369,373.49,373,364.49,369,368.49,365,364.49,369,373.49" style="stroke: #A80036; stroke-width: 1.0;"/><line style="stroke: #A80036; stroke-width: 1.0;" x1="369" x2="369" y1="368.49" y2="360.49"/><polygon fill="#FFFFFF" points="369,266.84,365,272.84,369,278.84,373,272.84,369,266.84" style="stroke: #A80036; stroke-width: 1.0;"/><!--MD5=[354d27fc06c5713fdaef62924046be71]
link HelloControler to FoodList--><path codeLine="95" d="M1247.0483,291.1413 C1247.0483,291.1413 1208.22,309.4 1190,318 C1141.9,340.69 1088.6,366.03 1043.93,387.3 " fill="none" id="HelloControler-FoodList" style="stroke: #A80036; stroke-width: 1.0; stroke-dasharray: 7.0,7.0;"/><polygon fill="#A80036" points="1032.18,392.9,1042.0256,392.6462,1036.6952,390.7523,1038.5892,385.4219,1032.18,392.9" style="stroke: #A80036; stroke-width: 1.0;"/><line style="stroke: #A80036; stroke-width: 1.0;" x1="1036.6952" x2="1043.915" y1="390.7523" y2="387.31"/><polygon fill="#FFFFFF" points="1257.91,286.04,1250.7787,284.9701,1247.0483,291.1413,1254.1796,292.2112,1257.91,286.04" style="stroke: #A80036; stroke-width: 1.0;"/><!--MD5=[1b1932a57426be23d962914671cfd113]
link HelloControler to ExpirationRecall--><path codeLine="96" d="M1472,298.2 C1472,298.2 1472,340.96 1472,360.07 " fill="none" id="HelloControler-ExpirationRecall" style="stroke: #A80036; stroke-width: 1.0; stroke-dasharray: 7.0,7.0;"/><polygon fill="#A80036" points="1472,373.3,1476,364.3,1472,368.3,1468,364.3,1472,373.3" style="stroke: #A80036; stroke-width: 1.0;"/><line style="stroke: #A80036; stroke-width: 1.0;" x1="1472" x2="1472" y1="368.3" y2="360.3"/><polygon fill="#FFFFFF" points="1472,286.2,1468,292.2,1472,298.2,1476,292.2,1472,286.2" style="stroke: #A80036; stroke-width: 1.0;"/><!--MD5=[49c9b9dbe029f75ce8762b80940111fb]
link HelloControler to Search--><path codeLine="97" d="M1661.1117,290.5367 C1661.1117,290.5367 1702.11,305.21 1722,310 C1794.71,327.5 2322.96,297.93 2395,318 C2439.43,330.38 2484.14,355.28 2519.89,378.93 " fill="none" id="HelloControler-Search" style="stroke: #A80036; stroke-width: 1.0; stroke-dasharray: 7.0,7.0;"/><polygon fill="#A80036" points="2530.68,386.22,2525.4586,377.8691,2526.5359,383.4224,2520.9825,384.4997,2530.68,386.22" style="stroke: #A80036; stroke-width: 1.0;"/><line style="stroke: #A80036; stroke-width: 1.0;" x1="2526.5359" x2="2519.905" y1="383.4224" y2="378.95"/><polygon fill="#FFFFFF" points="1649.97,286.08,1654.0553,292.0223,1661.1117,290.5367,1657.0264,284.5944,1649.97,286.08" style="stroke: #A80036; stroke-width: 1.0;"/><!--MD5=[3ddd5314e4d95556b1df97358b01383a]
link HelloControler to Fridge--><path codeLine="98" d="M1673.5099,290.7931 C1673.5099,290.7931 1706.38,304.37 1722,310 C1736.61,315.26 1741.13,313.55 1756,318 C1793.97,329.36 1833.98,342.79 1872.37,356.43 " fill="none" id="HelloControler-Fridge" style="stroke: #A80036; stroke-width: 1.0; stroke-dasharray: 7.0,7.0;"/><polygon fill="#A80036" points="1884.77,360.86,1877.6462,354.0592,1880.0629,359.1738,1874.9483,361.5905,1884.77,360.86" style="stroke: #A80036; stroke-width: 1.0;"/><line style="stroke: #A80036; stroke-width: 1.0;" x1="1880.0629" x2="1872.525" y1="359.1738" y2="356.485"/><polygon fill="#FFFFFF" points="1662.5,286.02,1666.4139,292.0765,1673.5099,290.7931,1669.596,284.7366,1662.5,286.02" style="stroke: #A80036; stroke-width: 1.0;"/><!--MD5=[8d9a76018159ab17ef28685a660f5809]
link HelloControler to Recipe--><path codeLine="99" d="M1227.2689,219.8507 C1227.2689,219.8507 888.28,276.05 722,318 C665.66,332.21 605.32,350.89 550.74,369.14 " fill="none" id="HelloControler-Recipe" style="stroke: #A80036; stroke-width: 1.0; stroke-dasharray: 7.0,7.0;"/><polygon fill="#A80036" points="538.09,373.39,547.8957,374.3114,542.829,371.7957,545.3447,366.729,538.09,373.39" style="stroke: #A80036; stroke-width: 1.0;"/><line style="stroke: #A80036; stroke-width: 1.0;" x1="542.829" x2="550.41" y1="371.7957" y2="369.25"/><polygon fill="#FFFFFF" points="1239.13,218.03,1232.5926,214.9867,1227.2689,219.8507,1233.8064,222.8941,1239.13,218.03" style="stroke: #A80036; stroke-width: 1.0;"/><!--MD5=[a4869b11abf0d66ab4f646e3ce5671e2]
@startuml Wadge-BackEnd
    package main.java.wadge{
        package backend {
            class Application {
                + main(args: []string): void <<static>>
            }

            class HelloControler {
                - expirationTypes: List<string> <<static>>
                - FRIDGE_FILE: string <<static>>
                - FOOD_FILE: string <<static>>
                + createFridge(food: List<Map<string, object>>): void
                + readFile(): ResponseEntity<List<Map<string, Object>>>
                + readFridge2(): ResponseEntity<List<Map<string, Object>>>
                + getMonth(month: string): ResponseEntity<List<Map<string, Object>>>
                + getCloseShops(lat: double, lng: double): ResponseEntity<JSONObject>
                + getExpirationAlert(type: string): ResponseEntity<List<Map<string, string>>>
                + getExpirationAlerts(): ResponseEntity<List<Map<string, string>>>
                + getRecipes(): ResponseEntity<List<Map<string, Object>>>
                + readFridge(): ResponseEntity<List<Map<string, Object>>>
            }
            
        }

        package food_list {
            class FoodList {
                - this()
                + readFile(fileName: string): List<Map<string, Object>> <<static>>
                + foodFromMonth(month: string): List<Map<string, Object>> <<static>>
            }
        }

        package fridge {
            class Fridge {
                + writeFride(newElements: List<Map<string, Object>>): void <<static>>
                + mergeList(l1: List<Map<string, Object>>, l2: List<Map<string, Object>>): void <<static>>
                + readFile(fileName: string): List<Map<string, Object>> <<static>>
                - formatConverter(elements: List<Map<string, Object>>): List<Map<string, Object>> <<static>>
                - getKeys(list: List<Map<string, Object>>): List<string> <<static>>
                - listDifference(l1: List<string>, l2: List<string>): List<string> <<static>>
                - findElementInList(list: List<Map<string, Object>>, name: string): List<Map<string, Object>> <<static>>
                - addProductToElement(element: Map<string, Object>, elementToAdd: void

            }

            class ExpirationRecall {
                - dateFormater: SimpleDateFormat <<final>>
                - currentDate: Date <<final>>
                + this(): ExpirationRecall
                + getExpirationList(type: RecallType): List<Map<string, string>>
                - dateDifference(d1: Date, d2: Date): long <<static>>
                - getExpirationDateFromPredicate(predicate Predicate<Long>): List<Map<string, string>>

            }
            ExpirationRecall o..> RecallType

            enum RecallType {
                TWO_DAYS, FIVE_DAYS, SEVEN_DAYS, FORTEEN_DAYS, EXPIRED
            }
        }

        package google {
            class Search {
                - KEY: string <<static final>>
                + jsonToFile(fileName: string, json: JSONObject): void
                + request(lat: double, lng: double): JSONObject
                + parseJSON(json: JSONArray): JSONArray
            }
        }

        package recipe {
            class Recipe {
                - name: string <<final>>
                - steps: List<string> <<final>>
                - quantity: Object <<final>>
                - ingredient: List<Map<string, Object>>
                + this(name: String, steps: List<string>, quantity: Object, ingredients: List<Map<string, Object>>): Recipe
                + readRecipes(): List<Map<string, Object>> <<static>>
            }

            class RecipeBuilder {
                - name: string <<final>>
                - steps: List<string> <<final>>
                - quantity: Object <<final>>
                - ingredient: List<Map<string, Object>>
                + this(name: string): RecipeBuilder
                + withSteps(steps: List<string>): RecipeBuilder
                + withQuantity(quantity: Object): RecipeBuilder
                + withIngredients(ingredients: List<Map<string, Object>>): RecipeBuilder
                + generate(): Recipe
            }
            RecipeBuilder o..> Recipe
        }
    }

    HelloControler o..> FoodList
    HelloControler o..> ExpirationRecall
    HelloControler o..> Search
    HelloControler o..> Fridge
    HelloControler o..> Recipe

@enduml

PlantUML version 1.2020.18(Wed Sep 30 21:40:44 CEST 2020)
(GPL source distribution)
Java Runtime: OpenJDK Runtime Environment
JVM: OpenJDK 64-Bit Server VM
Default Encoding: UTF-8
Language: fr
Country: FR
--></g></svg>