<?xml version="1.0" encoding="UTF-8" standalone="no"?><svg xmlns="http://www.w3.org/2000/svg" xmlns:xlink="http://www.w3.org/1999/xlink" contentScriptType="application/ecmascript" contentStyleType="text/css" height="577px" preserveAspectRatio="none" style="width:1487px;height:577px;" version="1.1" viewBox="0 0 1487 577" width="1487px" zoomAndPan="magnify"><defs><filter height="300%" id="fd155wpqbjxfb" width="300%" x="-1" y="-1"><feGaussianBlur result="blurOut" stdDeviation="2.0"/><feColorMatrix in="blurOut" result="blurOut2" type="matrix" values="0 0 0 0 0 0 0 0 0 0 0 0 0 0 0 0 0 0 .4 0"/><feOffset dx="4.0" dy="4.0" in="blurOut2" result="blurOut3"/><feBlend in="SourceGraphic" in2="blurOut3" mode="normal"/></filter></defs><g><!--MD5=[635d1654c4a036c639c6c4af9dfda15e]
cluster main.java.wadge--><polygon fill="#FFFFFF" filter="url(#fd155wpqbjxfb)" points="16,6,153,6,160,28.2969,1470,28.2969,1470,570,16,570,16,6" style="stroke: #000000; stroke-width: 1.5;"/><line style="stroke: #000000; stroke-width: 1.5;" x1="16" x2="160" y1="28.2969" y2="28.2969"/><text fill="#000000" font-family="sans-serif" font-size="14" font-weight="bold" lengthAdjust="spacingAndGlyphs" textLength="131" x="20" y="20.9951">main.java.wadge</text><!--MD5=[47c14c564e796a575e671c2b0469a7bb]
cluster backend--><polygon fill="#FFFFFF" filter="url(#fd155wpqbjxfb)" points="541,49,614,49,621,71.2969,1291,71.2969,1291,225,541,225,541,49" style="stroke: #000000; stroke-width: 1.5;"/><line style="stroke: #000000; stroke-width: 1.5;" x1="541" x2="621" y1="71.2969" y2="71.2969"/><text fill="#000000" font-family="sans-serif" font-size="14" font-weight="bold" lengthAdjust="spacingAndGlyphs" textLength="67" x="545" y="63.9951">backend</text><!--MD5=[1ff65103b48fb45cc8de8d0be20f3224]
cluster food_list--><polygon fill="#FFFFFF" filter="url(#fd155wpqbjxfb)" points="40,268.5,112,268.5,119,290.7969,484,290.7969,484,405.5,40,405.5,40,268.5" style="stroke: #000000; stroke-width: 1.5;"/><line style="stroke: #000000; stroke-width: 1.5;" x1="40" x2="119" y1="290.7969" y2="290.7969"/><text fill="#000000" font-family="sans-serif" font-size="14" font-weight="bold" lengthAdjust="spacingAndGlyphs" textLength="66" x="44" y="283.4951">food_list</text><!--MD5=[1e7a8120a2bf51cfaec4a25405c6a6b0]
cluster fridge--><polygon fill="#FFFFFF" filter="url(#fd155wpqbjxfb)" points="508,249,561,249,568,271.2969,1072,271.2969,1072,546,508,546,508,249" style="stroke: #000000; stroke-width: 1.5;"/><line style="stroke: #000000; stroke-width: 1.5;" x1="508" x2="568" y1="271.2969" y2="271.2969"/><text fill="#000000" font-family="sans-serif" font-size="14" font-weight="bold" lengthAdjust="spacingAndGlyphs" textLength="47" x="512" y="263.9951">fridge</text><!--MD5=[e061fb4732715491a1992364c7bceb19]
cluster google--><polygon fill="#FFFFFF" filter="url(#fd155wpqbjxfb)" points="1096,262,1156,262,1163,284.2969,1446,284.2969,1446,412,1096,412,1096,262" style="stroke: #000000; stroke-width: 1.5;"/><line style="stroke: #000000; stroke-width: 1.5;" x1="1096" x2="1163" y1="284.2969" y2="284.2969"/><text fill="#000000" font-family="sans-serif" font-size="14" font-weight="bold" lengthAdjust="spacingAndGlyphs" textLength="54" x="1100" y="276.9951">google</text><!--MD5=[0b4e4b4980470ea387cc45de9bd14b5b]
class Application--><rect codeLine="3" fill="#FEFECE" filter="url(#fd155wpqbjxfb)" height="60.8047" id="Application" style="stroke: #A80036; stroke-width: 1.5;" width="217" x="1057.5" y="116"/><ellipse cx="1127.25" cy="132" fill="#ADD1B2" rx="11" ry="11" style="stroke: #A80036; stroke-width: 1.0;"/><path d="M1130.2188,137.6406 Q1129.6406,137.9375 1129,138.0781 Q1128.3594,138.2344 1127.6563,138.2344 Q1125.1563,138.2344 1123.8281,136.5938 Q1122.5156,134.9375 1122.5156,131.8125 Q1122.5156,128.6875 1123.8281,127.0313 Q1125.1563,125.375 1127.6563,125.375 Q1128.3594,125.375 1129,125.5313 Q1129.6563,125.6875 1130.2188,125.9844 L1130.2188,128.7031 Q1129.5938,128.125 1129,127.8594 Q1128.4063,127.5781 1127.7813,127.5781 Q1126.4375,127.5781 1125.75,128.6563 Q1125.0625,129.7188 1125.0625,131.8125 Q1125.0625,133.9063 1125.75,134.9844 Q1126.4375,136.0469 1127.7813,136.0469 Q1128.4063,136.0469 1129,135.7813 Q1129.5938,135.5 1130.2188,134.9219 L1130.2188,137.6406 Z "/><text fill="#000000" font-family="sans-serif" font-size="12" lengthAdjust="spacingAndGlyphs" textLength="69" x="1147.75" y="136.1543">Application</text><line style="stroke: #A80036; stroke-width: 1.5;" x1="1058.5" x2="1273.5" y1="148" y2="148"/><line style="stroke: #A80036; stroke-width: 1.5;" x1="1058.5" x2="1273.5" y1="156" y2="156"/><ellipse cx="1068.5" cy="167" fill="#84BE84" rx="3" ry="3" style="stroke: #038048; stroke-width: 1.0;"/><text fill="#000000" font-family="sans-serif" font-size="11" lengthAdjust="spacingAndGlyphs" textLength="191" x="1077.5" y="170.2104">main(args: []string): void «static»</text><!--MD5=[1a456b2e505b83d3c08d879ddcfc51af]
class HelloControler--><rect codeLine="7" fill="#FEFECE" filter="url(#fd155wpqbjxfb)" height="124.8281" id="HelloControler" style="stroke: #A80036; stroke-width: 1.5;" width="465" x="557.5" y="84"/><ellipse cx="741.25" cy="100" fill="#ADD1B2" rx="11" ry="11" style="stroke: #A80036; stroke-width: 1.0;"/><path d="M744.2188,105.6406 Q743.6406,105.9375 743,106.0781 Q742.3594,106.2344 741.6563,106.2344 Q739.1563,106.2344 737.8281,104.5938 Q736.5156,102.9375 736.5156,99.8125 Q736.5156,96.6875 737.8281,95.0313 Q739.1563,93.375 741.6563,93.375 Q742.3594,93.375 743,93.5313 Q743.6563,93.6875 744.2188,93.9844 L744.2188,96.7031 Q743.5938,96.125 743,95.8594 Q742.4063,95.5781 741.7813,95.5781 Q740.4375,95.5781 739.75,96.6563 Q739.0625,97.7188 739.0625,99.8125 Q739.0625,101.9063 739.75,102.9844 Q740.4375,104.0469 741.7813,104.0469 Q742.4063,104.0469 743,103.7813 Q743.5938,103.5 744.2188,102.9219 L744.2188,105.6406 Z "/><text fill="#000000" font-family="sans-serif" font-size="12" lengthAdjust="spacingAndGlyphs" textLength="89" x="761.75" y="104.1543">HelloControler</text><line style="stroke: #A80036; stroke-width: 1.5;" x1="558.5" x2="1021.5" y1="116" y2="116"/><rect fill="none" height="6" style="stroke: #C82930; stroke-width: 1.0;" width="6" x="565.5" y="124"/><text fill="#000000" font-family="sans-serif" font-size="11" lengthAdjust="spacingAndGlyphs" textLength="218" x="577.5" y="130.2104">expirationTypes: List&lt;string&gt; «static»</text><line style="stroke: #A80036; stroke-width: 1.5;" x1="558.5" x2="1021.5" y1="136.8047" y2="136.8047"/><ellipse cx="568.5" cy="147.8047" fill="#84BE84" rx="3" ry="3" style="stroke: #038048; stroke-width: 1.0;"/><text fill="#000000" font-family="sans-serif" font-size="11" lengthAdjust="spacingAndGlyphs" textLength="322" x="577.5" y="151.0151">readFile(): ResponseEntity&lt;List&lt;Map&lt;string, Object&gt;&gt;&gt;</text><ellipse cx="568.5" cy="160.6094" fill="#84BE84" rx="3" ry="3" style="stroke: #038048; stroke-width: 1.0;"/><text fill="#000000" font-family="sans-serif" font-size="11" lengthAdjust="spacingAndGlyphs" textLength="406" x="577.5" y="163.8198">getMonth(month: string): ResponseEntity&lt;List&lt;Map&lt;string, Object&gt;&gt;&gt;</text><ellipse cx="568.5" cy="173.4141" fill="#84BE84" rx="3" ry="3" style="stroke: #038048; stroke-width: 1.0;"/><text fill="#000000" font-family="sans-serif" font-size="11" lengthAdjust="spacingAndGlyphs" textLength="402" x="577.5" y="176.6245">getCloseShops(lat: double, lng: double): ResponseEntity&lt;JSONObject&gt;</text><ellipse cx="568.5" cy="186.2188" fill="#84BE84" rx="3" ry="3" style="stroke: #038048; stroke-width: 1.0;"/><text fill="#000000" font-family="sans-serif" font-size="11" lengthAdjust="spacingAndGlyphs" textLength="439" x="577.5" y="189.4292">getExpirationAlert(type: string): ResponseEntity&lt;List&lt;Map&lt;string, string&gt;&gt;&gt;</text><ellipse cx="568.5" cy="199.0234" fill="#84BE84" rx="3" ry="3" style="stroke: #038048; stroke-width: 1.0;"/><text fill="#000000" font-family="sans-serif" font-size="11" lengthAdjust="spacingAndGlyphs" textLength="381" x="577.5" y="202.2339">getExpirationAlerts(): ResponseEntity&lt;List&lt;Map&lt;string, string&gt;&gt;&gt;</text><!--MD5=[af09bfd437444f2a016652e712de3710]
class FoodList--><rect codeLine="20" fill="#FEFECE" filter="url(#fd155wpqbjxfb)" height="86.4141" id="FoodList" style="stroke: #A80036; stroke-width: 1.5;" width="412" x="56" y="303.5"/><ellipse cx="231.75" cy="319.5" fill="#ADD1B2" rx="11" ry="11" style="stroke: #A80036; stroke-width: 1.0;"/><path d="M234.7188,325.1406 Q234.1406,325.4375 233.5,325.5781 Q232.8594,325.7344 232.1563,325.7344 Q229.6563,325.7344 228.3281,324.0938 Q227.0156,322.4375 227.0156,319.3125 Q227.0156,316.1875 228.3281,314.5313 Q229.6563,312.875 232.1563,312.875 Q232.8594,312.875 233.5,313.0313 Q234.1563,313.1875 234.7188,313.4844 L234.7188,316.2031 Q234.0938,315.625 233.5,315.3594 Q232.9063,315.0781 232.2813,315.0781 Q230.9375,315.0781 230.25,316.1563 Q229.5625,317.2188 229.5625,319.3125 Q229.5625,321.4063 230.25,322.4844 Q230.9375,323.5469 232.2813,323.5469 Q232.9063,323.5469 233.5,323.2813 Q234.0938,323 234.7188,322.4219 L234.7188,325.1406 Z "/><text fill="#000000" font-family="sans-serif" font-size="12" lengthAdjust="spacingAndGlyphs" textLength="52" x="252.25" y="323.6543">FoodList</text><line style="stroke: #A80036; stroke-width: 1.5;" x1="57" x2="467" y1="335.5" y2="335.5"/><line style="stroke: #A80036; stroke-width: 1.5;" x1="57" x2="467" y1="343.5" y2="343.5"/><rect fill="#F24D5C" height="6" style="stroke: #C82930; stroke-width: 1.0;" width="6" x="64" y="351.5"/><text fill="#000000" font-family="sans-serif" font-size="11" lengthAdjust="spacingAndGlyphs" textLength="29" x="76" y="357.7104">this()</text><ellipse cx="67" cy="367.3047" fill="#84BE84" rx="3" ry="3" style="stroke: #038048; stroke-width: 1.0;"/><text fill="#000000" font-family="sans-serif" font-size="11" lengthAdjust="spacingAndGlyphs" textLength="357" x="76" y="370.5151">readFile(fileName: string): List&lt;Map&lt;string, Object&gt;&gt; «static»</text><ellipse cx="67" cy="380.1094" fill="#84BE84" rx="3" ry="3" style="stroke: #038048; stroke-width: 1.0;"/><text fill="#000000" font-family="sans-serif" font-size="11" lengthAdjust="spacingAndGlyphs" textLength="386" x="76" y="383.3198">foodFromMonth(month: string): List&lt;Map&lt;string, Object&gt;&gt; «static»</text><!--MD5=[3378661fb14bddae46da0beb7734cbb9]
class ExpirationRecall--><rect codeLine="28" fill="#FEFECE" filter="url(#fd155wpqbjxfb)" height="124.8281" id="ExpirationRecall" style="stroke: #A80036; stroke-width: 1.5;" width="532" x="524" y="284"/><ellipse cx="736.25" cy="300" fill="#ADD1B2" rx="11" ry="11" style="stroke: #A80036; stroke-width: 1.0;"/><path d="M739.2188,305.6406 Q738.6406,305.9375 738,306.0781 Q737.3594,306.2344 736.6563,306.2344 Q734.1563,306.2344 732.8281,304.5938 Q731.5156,302.9375 731.5156,299.8125 Q731.5156,296.6875 732.8281,295.0313 Q734.1563,293.375 736.6563,293.375 Q737.3594,293.375 738,293.5313 Q738.6563,293.6875 739.2188,293.9844 L739.2188,296.7031 Q738.5938,296.125 738,295.8594 Q737.4063,295.5781 736.7813,295.5781 Q735.4375,295.5781 734.75,296.6563 Q734.0625,297.7188 734.0625,299.8125 Q734.0625,301.9063 734.75,302.9844 Q735.4375,304.0469 736.7813,304.0469 Q737.4063,304.0469 738,303.7813 Q738.5938,303.5 739.2188,302.9219 L739.2188,305.6406 Z "/><text fill="#000000" font-family="sans-serif" font-size="12" lengthAdjust="spacingAndGlyphs" textLength="99" x="756.75" y="304.1543">ExpirationRecall</text><line style="stroke: #A80036; stroke-width: 1.5;" x1="525" x2="1055" y1="316" y2="316"/><rect fill="none" height="6" style="stroke: #C82930; stroke-width: 1.0;" width="6" x="532" y="324"/><text fill="#000000" font-family="sans-serif" font-size="11" lengthAdjust="spacingAndGlyphs" textLength="232" x="544" y="330.2104">dateFormater: SimpleDateFormat «final»</text><rect fill="none" height="6" style="stroke: #C82930; stroke-width: 1.0;" width="6" x="532" y="336.8047"/><text fill="#000000" font-family="sans-serif" font-size="11" lengthAdjust="spacingAndGlyphs" textLength="143" x="544" y="343.0151">currentDate: Date «final»</text><line style="stroke: #A80036; stroke-width: 1.5;" x1="525" x2="1055" y1="349.6094" y2="349.6094"/><ellipse cx="535" cy="360.6094" fill="#84BE84" rx="3" ry="3" style="stroke: #038048; stroke-width: 1.0;"/><text fill="#000000" font-family="sans-serif" font-size="11" lengthAdjust="spacingAndGlyphs" textLength="126" x="544" y="363.8198">this(): ExpirationRecall</text><ellipse cx="535" cy="373.4141" fill="#84BE84" rx="3" ry="3" style="stroke: #038048; stroke-width: 1.0;"/><text fill="#000000" font-family="sans-serif" font-size="11" lengthAdjust="spacingAndGlyphs" textLength="355" x="544" y="376.6245">getExpirationList(type: RecallType): List&lt;Map&lt;string, string&gt;&gt;</text><rect fill="#F24D5C" height="6" style="stroke: #C82930; stroke-width: 1.0;" width="6" x="532" y="383.2188"/><text fill="#000000" font-family="sans-serif" font-size="11" lengthAdjust="spacingAndGlyphs" textLength="276" x="544" y="389.4292">dateDifference(d1: Date, d2: Date): long «static»</text><rect fill="#F24D5C" height="6" style="stroke: #C82930; stroke-width: 1.0;" width="6" x="532" y="396.0234"/><text fill="#000000" font-family="sans-serif" font-size="11" lengthAdjust="spacingAndGlyphs" textLength="506" x="544" y="402.2339">getExpirationDateFromPredicate(predicate Predicate&lt;Long&gt;): List&lt;Map&lt;string, string&gt;&gt;</text><!--MD5=[8671ffeb4c291327de3cf6ba4a126a87]
class RecallType--><rect codeLine="39" fill="#FEFECE" filter="url(#fd155wpqbjxfb)" height="60.8047" id="RecallType" style="stroke: #A80036; stroke-width: 1.5;" width="370" x="605" y="469"/><ellipse cx="752.75" cy="485" fill="#EB937F" rx="11" ry="11" style="stroke: #A80036; stroke-width: 1.0;"/><path d="M756.8594,491 L749.1406,491 L749.1406,478.6094 L756.8594,478.6094 L756.8594,480.7656 L751.5938,480.7656 L751.5938,483.4375 L756.3594,483.4375 L756.3594,485.5938 L751.5938,485.5938 L751.5938,488.8438 L756.8594,488.8438 L756.8594,491 Z "/><text fill="#000000" font-family="sans-serif" font-size="12" lengthAdjust="spacingAndGlyphs" textLength="66" x="773.25" y="489.1543">RecallType</text><line style="stroke: #A80036; stroke-width: 1.5;" x1="606" x2="974" y1="501" y2="501"/><text fill="#000000" font-family="sans-serif" font-size="11" lengthAdjust="spacingAndGlyphs" textLength="358" x="611" y="515.2104">TWO_DAYS, FIVE_DAYS, SEVEN_DAYS, FORTEEN_DAYS, EXPIRED</text><line style="stroke: #A80036; stroke-width: 1.5;" x1="606" x2="974" y1="521.8047" y2="521.8047"/><!--MD5=[d5a630d213adc2e3986060bd811a90b1]
class Search--><rect codeLine="45" fill="#FEFECE" filter="url(#fd155wpqbjxfb)" height="99.2188" id="Search" style="stroke: #A80036; stroke-width: 1.5;" width="317" x="1112.5" y="297"/><ellipse cx="1244.75" cy="313" fill="#ADD1B2" rx="11" ry="11" style="stroke: #A80036; stroke-width: 1.0;"/><path d="M1247.7188,318.6406 Q1247.1406,318.9375 1246.5,319.0781 Q1245.8594,319.2344 1245.1563,319.2344 Q1242.6563,319.2344 1241.3281,317.5938 Q1240.0156,315.9375 1240.0156,312.8125 Q1240.0156,309.6875 1241.3281,308.0313 Q1242.6563,306.375 1245.1563,306.375 Q1245.8594,306.375 1246.5,306.5313 Q1247.1563,306.6875 1247.7188,306.9844 L1247.7188,309.7031 Q1247.0938,309.125 1246.5,308.8594 Q1245.9063,308.5781 1245.2813,308.5781 Q1243.9375,308.5781 1243.25,309.6563 Q1242.5625,310.7188 1242.5625,312.8125 Q1242.5625,314.9063 1243.25,315.9844 Q1243.9375,317.0469 1245.2813,317.0469 Q1245.9063,317.0469 1246.5,316.7813 Q1247.0938,316.5 1247.7188,315.9219 L1247.7188,318.6406 Z "/><text fill="#000000" font-family="sans-serif" font-size="12" lengthAdjust="spacingAndGlyphs" textLength="44" x="1265.25" y="317.1543">Search</text><line style="stroke: #A80036; stroke-width: 1.5;" x1="1113.5" x2="1428.5" y1="329" y2="329"/><rect fill="none" height="6" style="stroke: #C82930; stroke-width: 1.0;" width="6" x="1120.5" y="337"/><text fill="#000000" font-family="sans-serif" font-size="11" lengthAdjust="spacingAndGlyphs" textLength="139" x="1132.5" y="343.2104">KEY: string «static final»</text><line style="stroke: #A80036; stroke-width: 1.5;" x1="1113.5" x2="1428.5" y1="349.8047" y2="349.8047"/><ellipse cx="1123.5" cy="360.8047" fill="#84BE84" rx="3" ry="3" style="stroke: #038048; stroke-width: 1.0;"/><text fill="#000000" font-family="sans-serif" font-size="11" lengthAdjust="spacingAndGlyphs" textLength="291" x="1132.5" y="364.0151">jsonToFile(fileName: string, json: JSONObject): void</text><ellipse cx="1123.5" cy="373.6094" fill="#84BE84" rx="3" ry="3" style="stroke: #038048; stroke-width: 1.0;"/><text fill="#000000" font-family="sans-serif" font-size="11" lengthAdjust="spacingAndGlyphs" textLength="255" x="1132.5" y="376.8198">request(lat: double, lng: double): JSONObject</text><ellipse cx="1123.5" cy="386.4141" fill="#84BE84" rx="3" ry="3" style="stroke: #038048; stroke-width: 1.0;"/><text fill="#000000" font-family="sans-serif" font-size="11" lengthAdjust="spacingAndGlyphs" textLength="225" x="1132.5" y="389.6245">parseJSON(json: JSONArray): JSONArray</text><!--MD5=[8c1461d21096083f1ad9d0ee163fa124]
link ExpirationRecall to RecallType--><path codeLine="37" d="M790,421.35 C790,421.35 790,445.34 790,455.75 " fill="none" id="ExpirationRecall-RecallType" style="stroke: #A80036; stroke-width: 1.0; stroke-dasharray: 7.0,7.0;"/><polygon fill="#A80036" points="790,468.76,794,459.76,790,463.76,786,459.76,790,468.76" style="stroke: #A80036; stroke-width: 1.0;"/><line style="stroke: #A80036; stroke-width: 1.0;" x1="790" x2="790" y1="463.76" y2="455.76"/><polygon fill="#FFFFFF" points="790,409.35,786,415.35,790,421.35,794,415.35,790,409.35" style="stroke: #A80036; stroke-width: 1.0;"/><!--MD5=[354d27fc06c5713fdaef62924046be71]
link HelloControler to FoodList--><path codeLine="54" d="M586.0178,212.9295 C586.0178,212.9295 532.79,231.64 508,241 C461.57,258.52 411,279.64 367.86,298.3 " fill="none" id="HelloControler-FoodList" style="stroke: #A80036; stroke-width: 1.0; stroke-dasharray: 7.0,7.0;"/><polygon fill="#A80036" points="355.89,303.49,365.7384,303.5801,360.4774,301.5012,362.5564,296.2402,355.89,303.49" style="stroke: #A80036; stroke-width: 1.0;"/><line style="stroke: #A80036; stroke-width: 1.0;" x1="360.4774" x2="367.82" y1="301.5012" y2="298.315"/><polygon fill="#FFFFFF" points="597.37,209.04,590.3974,207.2007,586.0178,212.9295,592.9904,214.7688,597.37,209.04" style="stroke: #A80036; stroke-width: 1.0;"/><!--MD5=[1b1932a57426be23d962914671cfd113]
link HelloControler to ExpirationRecall--><path codeLine="55" d="M790,221.06 C790,221.06 790,254.94 790,270.85 " fill="none" id="HelloControler-ExpirationRecall" style="stroke: #A80036; stroke-width: 1.0; stroke-dasharray: 7.0,7.0;"/><polygon fill="#A80036" points="790,283.97,794.0099,274.9744,790.0055,278.97,786.0099,274.9656,790,283.97" style="stroke: #A80036; stroke-width: 1.0;"/><line style="stroke: #A80036; stroke-width: 1.0;" x1="790.0055" x2="790" y1="278.97" y2="270.975"/><polygon fill="#FFFFFF" points="790,209.06,786,215.06,790,221.06,794,215.06,790,209.06" style="stroke: #A80036; stroke-width: 1.0;"/><!--MD5=[49c9b9dbe029f75ce8762b80940111fb]
link HelloControler to Search--><path codeLine="56" d="M975.3012,212.8233 C975.3012,212.8233 1019.31,226.89 1040,233 C1054.06,237.15 1058.3,235.78 1072,241 C1107.56,254.56 1144.91,272.95 1177.52,290.53 " fill="none" id="HelloControler-Search" style="stroke: #A80036; stroke-width: 1.0; stroke-dasharray: 7.0,7.0;"/><polygon fill="#A80036" points="1189.3,296.96,1183.3157,289.1377,1184.9109,294.565,1179.4837,296.1602,1189.3,296.96" style="stroke: #A80036; stroke-width: 1.0;"/><line style="stroke: #A80036; stroke-width: 1.0;" x1="1184.9109" x2="1177.89" y1="294.565" y2="290.735"/><polygon fill="#FFFFFF" points="963.9,209.08,968.3528,214.7521,975.3012,212.8233,970.8484,207.1512,963.9,209.08" style="stroke: #A80036; stroke-width: 1.0;"/><!--MD5=[22c09d9cd640e711fb599eac47d4dbb9]
@startuml Wadge-BackEnd
    package main.java.wadge{
        package backend {
            class Application {
                + main(args: []string): void <<static>>
            }

            class HelloControler {
                - expirationTypes: List<string> <<static>>
                + readFile(): ResponseEntity<List<Map<string, Object>>>
                + getMonth(month: string): ResponseEntity<List<Map<string, Object>>>
                + getCloseShops(lat: double, lng: double): ResponseEntity<JSONObject>
                + getExpirationAlert(type: string): ResponseEntity<List<Map<string, string>>>
                + getExpirationAlerts(): ResponseEntity<List<Map<string, string>>>

            }
            
        }

        package food_list {
            class FoodList {
                - this()
                + readFile(fileName: string): List<Map<string, Object>> <<static>>
                + foodFromMonth(month: string): List<Map<string, Object>> <<static>>
            }
        }

        package fridge {
            class ExpirationRecall {
                - dateFormater: SimpleDateFormat <<final>>
                - currentDate: Date <<final>>
                + this(): ExpirationRecall
                + getExpirationList(type: RecallType): List<Map<string, string>>
                - dateDifference(d1: Date, d2: Date): long <<static>>
                - getExpirationDateFromPredicate(predicate Predicate<Long>): List<Map<string, string>>

            }
            ExpirationRecall o..> RecallType

            enum RecallType {
                TWO_DAYS, FIVE_DAYS, SEVEN_DAYS, FORTEEN_DAYS, EXPIRED
            }
        }

        package google {
            class Search {
                - KEY: string <<static final>>
                + jsonToFile(fileName: string, json: JSONObject): void
                + request(lat: double, lng: double): JSONObject
                + parseJSON(json: JSONArray): JSONArray
            }
        }
    }

    HelloControler o..> FoodList
    HelloControler o..> ExpirationRecall
    HelloControler o..> Search

@enduml

PlantUML version 1.2020.18(Wed Sep 30 21:40:44 CEST 2020)
(GPL source distribution)
Java Runtime: OpenJDK Runtime Environment
JVM: OpenJDK 64-Bit Server VM
Default Encoding: UTF-8
Language: fr
Country: FR
--></g></svg>